<?xml version="1.0" encoding="utf-8"?>
<!-- Generator: Adobe Illustrator 22.0.0, SVG Export Plug-In . SVG Version: 6.00 Build 0)  -->
<svg version="1.1" id="Capa_1" xmlns="http://www.w3.org/2000/svg" xmlns:xlink="http://www.w3.org/1999/xlink" x="0px" y="0px"
	 viewBox="0 0 1402.1 610.6" style="enable-background:new 0 0 1402.1 610.6;" xml:space="preserve">
<style type="text/css">
	.st0{opacity:0.3;}
	.st1{fill:#00AE42;}
	.st2{fill:#FFFFFF;}
	.st3{opacity:0.3;fill:#303030;}
	.st4{fill:#303030;}
	.st5{fill:#E6E6E6;}
	.st6{fill:#4C4C4C;}
	.st7{fill:#666666;}
	.st8{fill:#F52C7A;}
	.st9{fill:#FFA800;}
	.st10{fill:#83CC23;}
	.st11{fill:#999999;}
	.st12{fill:#FFA600;}
	.st13{opacity:0.1;fill:#606060;}
	.st14{fill:none;}
	.st15{opacity:0.2;}
	.st16{font-family:'MyriadPro-Regular';}
	.st17{font-size:11.1028px;}
	.st18{fill-rule:evenodd;clip-rule:evenodd;fill:#008689;}
	.st19{fill-rule:evenodd;clip-rule:evenodd;fill:#E8685B;}
	.st20{fill-rule:evenodd;clip-rule:evenodd;fill:#F5F4F4;}
	.st21{fill-rule:evenodd;clip-rule:evenodd;fill:#004A82;}
	.st22{fill-rule:evenodd;clip-rule:evenodd;fill:#F9C00B;}
	.st23{fill-rule:evenodd;clip-rule:evenodd;fill:#383D5D;}
	.st24{fill-rule:evenodd;clip-rule:evenodd;fill:#005253;}
	.st25{fill-rule:evenodd;clip-rule:evenodd;fill:#F4AD85;}
	.st26{fill-rule:evenodd;clip-rule:evenodd;fill:#0E1632;}
	.st27{fill-rule:evenodd;clip-rule:evenodd;fill:#EF8871;}
	.st28{fill:#606060;}
	.st29{opacity:0.2;fill:none;stroke:#000000;stroke-miterlimit:10;}
	.st30{fill:#FF5C5B;}
	.st31{font-family:'ComicSansMS';}
	.st32{font-size:22.2056px;}
	.st33{fill:none;stroke:#606060;stroke-miterlimit:10;}
	.st34{opacity:0.7;}
	.st35{clip-path:url(#SVGID_2_);}
	.st36{clip-path:url(#SVGID_4_);}
	.st37{clip-path:url(#SVGID_6_);fill:#898D8D;}
	.st38{clip-path:url(#SVGID_4_);fill:#898D8D;}
	.st39{clip-path:url(#SVGID_8_);fill:#898D8D;}
	.st40{clip-path:url(#SVGID_10_);fill:#898D8D;}
	.st41{clip-path:url(#SVGID_12_);fill:#898D8D;}
	.st42{clip-path:url(#SVGID_14_);fill:#898D8D;}
	.st43{clip-path:url(#SVGID_16_);fill:#898D8D;}
	.st44{clip-path:url(#SVGID_18_);fill:#898D8D;}
	.st45{clip-path:url(#SVGID_20_);fill:#898D8D;}
	.st46{clip-path:url(#SVGID_22_);fill:#898D8D;}
	.st47{clip-path:url(#SVGID_24_);fill:#898D8D;}
	.st48{clip-path:url(#SVGID_26_);fill:#00AE42;}
	.st49{clip-path:url(#SVGID_26_);fill:#898D8D;}
	.st50{clip-path:url(#SVGID_28_);fill:#898D8D;}
	.st51{clip-path:url(#SVGID_30_);fill:#898D8D;}
	.st52{clip-path:url(#SVGID_32_);fill:#898D8D;}
	.st53{clip-path:url(#SVGID_34_);fill:#898D8D;}
	.st54{clip-path:url(#SVGID_36_);fill:#898D8D;}
	.st55{clip-path:url(#SVGID_38_);fill:#898D8D;}
	.st56{clip-path:url(#SVGID_38_);fill:#00AE42;}
	.st57{opacity:0.2;fill:#606060;stroke:#000000;stroke-miterlimit:10;}
	.st58{fill:#F28766;}
	.st59{fill:#FDB32C;}
	.st60{fill:#F08D6E;}
	.st61{fill:#FA9778;}
	.st62{fill:#121B46;}
	.st63{fill:#FA7C55;}
</style>
<g class="st0">
	<path class="st1" d="M97.5,543.7c-3.6-0.2-7.3-0.7-10.8-1.5l0.3-1.5c3.5,0.8,7,1.3,10.6,1.5L97.5,543.7z M108.4,543.4l-0.2-1.5
		c3.5-0.4,7.1-1,10.5-2l0.4,1.5C115.6,542.4,112,543,108.4,543.4z M76.3,539c-3.4-1.4-6.7-3-9.8-4.9l0.8-1.3c3,1.8,6.2,3.4,9.5,4.8
		L76.3,539z M129.3,537.7l-0.6-1.4c3.2-1.5,6.3-3.2,9.3-5.2l0.9,1.3C135.8,534.3,132.6,536.1,129.3,537.7z M57.7,527.7
		c-2.8-2.4-5.3-5-7.7-7.7l1.2-1c2.3,2.7,4.8,5.3,7.5,7.6L57.7,527.7z M147.3,525.5l-1.1-1.1c2.6-2.4,5-5.1,7.1-7.9l1.2,0.9
		C152.4,520.2,150,523,147.3,525.5z M43.7,511.1c-1.9-3.1-3.5-6.4-4.8-9.8l1.4-0.6c1.3,3.3,2.9,6.5,4.7,9.6L43.7,511.1z
		 M160.5,508.2l-1.4-0.7c1.7-3.1,3.1-6.4,4.2-9.8l1.5,0.5C163.7,501.6,162.2,505,160.5,508.2z M35.7,490.9
		c-0.8-3.5-1.2-7.2-1.4-10.8l1.5-0.1c0.2,3.6,0.6,7.1,1.4,10.6L35.7,490.9z M167.5,487.6l-1.5-0.2c0.6-3.5,0.9-7.1,0.9-10.6
		c0-2.2-0.1-4.4-0.3-6.5l1.5-0.2c0.2,2.2,0.3,4.4,0.3,6.7C168.3,480.4,168.1,484,167.5,487.6z M36.1,469.3l-1.5-0.2
		c0.4-3.6,1.1-7.2,2.1-10.7l1.5,0.4C37.2,462.3,36.5,465.8,36.1,469.3z M164.6,459.7c-0.9-3.4-2.1-6.8-3.6-10l1.4-0.6
		c1.5,3.3,2.7,6.8,3.7,10.3L164.6,459.7z M41.9,448.9l-1.4-0.7c1.5-3.3,3.4-6.5,5.4-9.5l1.3,0.9C45.2,442.6,43.4,445.7,41.9,448.9z
		 M155.8,440.4c-2-2.9-4.2-5.8-6.6-8.4l1.1-1.1c2.5,2.7,4.8,5.5,6.8,8.5L155.8,440.4z M53.9,431.4l-1.1-1.1c2.5-2.6,5.3-5.1,8.2-7.2
		l0.9,1.2C59.1,426.4,56.4,428.8,53.9,431.4z M141.3,424.8c-2.8-2.2-5.8-4.1-8.9-5.8l0.7-1.4c3.2,1.7,6.3,3.7,9.1,6L141.3,424.8z
		 M70.9,418.6l-0.7-1.4c3.2-1.7,6.6-3.1,10-4.3l0.5,1.5C77.4,415.6,74.1,417,70.9,418.6z M122.6,414.7c-3.3-1.2-6.8-2-10.3-2.6
		l0.3-1.5c3.6,0.6,7.1,1.5,10.6,2.7L122.6,414.7z M91.1,412l-0.2-1.5c3.4-0.5,6.9-0.8,10.4-0.8c0,0,0,0,0,0l0.5,0l0,1.5l-0.4,0
		C97.9,411.1,94.4,411.4,91.1,412z"/>
</g>
<g>
	<path class="st1" d="M157.7,306.9c0,4.7-3.8,8.5-8.5,8.5s-8.5-3.8-8.5-8.5c0-4.7,3.8-8.5,8.5-8.5S157.7,302.2,157.7,306.9z"/>
</g>
<g>
	<path class="st1" d="M469.4,65.2c0,3-2.4,5.4-5.4,5.4c-3,0-5.4-2.4-5.4-5.4c0-3,2.4-5.4,5.4-5.4C466.9,59.8,469.4,62.2,469.4,65.2z
		"/>
</g>
<path class="st2" d="M938.7,364.2h-36.1c-2.4,0-4.3,1.9-4.3,4.3v23.3c0,2.4,1.9,4.3,4.3,4.3h10.8l3.4,5.9l3.9,6.8l3.9-6.8l3.4-5.9
	h10.8c2.4,0,4.3-1.9,4.3-4.3v-23.3C943,366.1,941,364.2,938.7,364.2z"/>
<g>
	<path class="st3" d="M921.3,592.4c0,4.8-82,8.6-183.2,8.6c-101.2,0-183.2-3.9-183.2-8.6c0-4.8,82-8.6,183.2-8.6
		C839.2,583.8,921.3,587.6,921.3,592.4z"/>
	<g>
		<path class="st4" d="M489.3,471.2V171.1c0-21.1,6.8-27.9,15.2-27.9h468.7c8.4,0,15.2,6.8,15.2,27.9v300.1H489.3z"/>
		<rect x="507.9" y="161.8" class="st2" width="462" height="290.8"/>
		<path class="st5" d="M974.6,517H503.2c-7.7,0-13.9-6.2-13.9-13.9v-50.5h499.2v50.5C988.5,510.7,982.2,517,974.6,517z"/>
		<polygon class="st6" points="792.3,517 685.4,517 674.5,576.3 803.3,576.3 		"/>
		<path class="st4" d="M815.4,576.3H662.3c-8.9,0-16,7.2-16,16l0,0h185.2l0,0C831.5,583.5,824.3,576.3,815.4,576.3z"/>
	</g>
	<rect x="507.9" y="161.8" class="st7" width="462" height="18.7"/>
	<path class="st8" d="M963.8,171.1c0,2.6-2.1,4.7-4.7,4.7c-2.6,0-4.7-2.1-4.7-4.7c0-2.6,2.1-4.7,4.7-4.7
		C961.7,166.5,963.8,168.5,963.8,171.1z"/>
	<path class="st9" d="M949.9,171.1c0,2.6-2.1,4.7-4.7,4.7c-2.6,0-4.7-2.1-4.7-4.7c0-2.6,2.1-4.7,4.7-4.7
		C947.8,166.5,949.9,168.5,949.9,171.1z"/>
	<path class="st10" d="M936.1,171.1c0,2.6-2.1,4.7-4.7,4.7c-2.6,0-4.7-2.1-4.7-4.7c0-2.6,2.1-4.7,4.7-4.7
		C934,166.5,936.1,168.5,936.1,171.1z"/>
	<path class="st11" d="M583.6,167.6H537c-1.7,0-3.3,1-4.1,2.6l-4.9,10.3h64.7l-4.9-10.3C587,168.6,585.4,167.6,583.6,167.6z"/>
	<path class="st12" d="M541.6,177.5h-5c-0.5,0-1-0.4-1-1v-5c0-0.5,0.4-1,1-1h5c0.5,0,1,0.4,1,1v5C542.5,177,542.1,177.5,541.6,177.5
		z"/>
	<rect x="620.1" y="168.2" class="st11" width="289.8" height="5.8"/>
</g>
<path class="st13" d="M449.6,237.6H243c-13.7,0-24.7,11.1-24.7,24.7v133.1c0,13.7,11.1,24.7,24.7,24.7h61.5l19.4,33.6l22.4,38.7
	l22.4-38.7l19.4-33.6h61.5c13.7,0,24.7-11.1,24.7-24.7V262.3C474.3,248.7,463.2,237.6,449.6,237.6z"/>
<rect x="234.1" y="267.2" class="st14" width="117.8" height="35.2"/>
<text transform="matrix(1 0 0 1 234.0624 275.0519)" class="st15 st16 st17">Nombre:</text>
<rect x="234.1" y="302.3" class="st14" width="117.8" height="35.2"/>
<text transform="matrix(1 0 0 1 234.0624 310.2111)" class="st15 st16 st17">Telefono:</text>
<rect x="234.1" y="348.6" class="st14" width="117.8" height="35.2"/>
<text transform="matrix(1 0 0 1 234.0624 356.4728)" class="st15 st16 st17">Correo:</text>
<rect x="234.1" y="386.5" class="st14" width="117.8" height="35.2"/>
<text transform="matrix(1 0 0 1 234.0624 394.4074)" class="st15 st16 st17">Contraseña:</text>
<path class="st2" d="M441,280.4H290.2c-3.6,0-6.5-2.9-6.5-6.5v-2.7c0-3.6,2.9-6.5,6.5-6.5H441c3.6,0,6.5,2.9,6.5,6.5v2.7
	C447.5,277.5,444.6,280.4,441,280.4z"/>
<path class="st2" d="M441,314.7H290.2c-3.6,0-6.5-2.9-6.5-6.5v-2.7c0-3.6,2.9-6.5,6.5-6.5H441c3.6,0,6.5,2.9,6.5,6.5v2.7
	C447.5,311.7,444.6,314.7,441,314.7z"/>
<path class="st2" d="M439.1,360.9H288.4c-3.6,0-6.5-2.9-6.5-6.5v-2.7c0-3.6,2.9-6.5,6.5-6.5h150.8c3.6,0,6.5,2.9,6.5,6.5v2.7
	C445.6,358,442.7,360.9,439.1,360.9z"/>
<path class="st2" d="M454.9,399.8H304.1c-3.6,0-6.5-2.9-6.5-6.5v-2.7c0-3.6,2.9-6.5,6.5-6.5h150.8c3.6,0,6.5,2.9,6.5,6.5v2.7
	C461.4,396.9,458.4,399.8,454.9,399.8z"/>
<g class="st0">
	<path class="st1" d="M1134.7,179.6l0-1.5c3.5-0.1,6.9-1,9.9-2.8l0.8,1.3C1142.1,178.5,1138.4,179.5,1134.7,179.6z M1123.9,176.9
		c-3.3-1.8-6-4.4-8-7.6l1.3-0.8c1.8,3,4.4,5.4,7.4,7.1L1123.9,176.9z M1153.1,168.7l-1.3-0.8c1.7-3,2.6-6.4,2.6-9.9
		c0-0.4,0-0.9,0-1.3l1.5-0.1c0,0.5,0,0.9,0,1.4C1155.9,161.7,1154.9,165.4,1153.1,168.7z M1112.7,158.7c0-0.2,0-0.5,0-0.7
		c0-3.5,0.9-7,2.5-10.1l1.4,0.7c-1.5,2.9-2.3,6.1-2.3,9.4c0,0.2,0,0.4,0,0.6L1112.7,158.7z M1151.1,147c-1.9-2.9-4.6-5.3-7.7-6.9
		l0.7-1.4c3.3,1.7,6.2,4.3,8.2,7.4L1151.1,147z M1123.6,141l-0.8-1.3c3.2-2,6.8-3.2,10.6-3.3l0.1,1.5
		C1129.9,138.1,1126.5,139.2,1123.6,141z"/>
</g>
<g class="st0">
	<path class="st1" d="M1245.6,475.9c-3.7-0.3-7.3-1.3-10.6-3.1l0.7-1.4c3.1,1.7,6.5,2.6,10,2.9L1245.6,475.9z M1256.6,474.4
		l-0.5-1.5c3.3-1.2,6.3-3,8.9-5.4l1,1.1C1263.3,471.3,1260.1,473.2,1256.6,474.4z M1226.5,465.8c-2.3-2.9-4-6.2-5-9.9l1.5-0.4
		c0.9,3.4,2.5,6.5,4.7,9.3L1226.5,465.8z M1272.4,459.8l-1.4-0.6c1.4-3.2,2.1-6.6,2.1-10.2h1.5
		C1274.6,452.7,1273.9,456.3,1272.4,459.8z M1272.9,446.2c-0.4-3.5-1.5-6.8-3.2-9.9l1.3-0.8c1.9,3.2,3,6.8,3.4,10.5L1272.9,446.2z
		 M1222.5,445.1l-1.5-0.2c0.6-3.7,1.9-7.2,3.9-10.3l1.3,0.8C1224.2,438.4,1223,441.6,1222.5,445.1z M1262.8,428.5
		c-2.8-2.1-6-3.6-9.4-4.4l0.3-1.5c3.6,0.8,7,2.4,10,4.6L1262.8,428.5z M1233.4,427.9l-0.9-1.3c3.1-2.1,6.5-3.5,10.2-4.2l0.3,1.5
		C1239.5,424.6,1236.3,425.9,1233.4,427.9z"/>
</g>
<g>
	<path class="st1" d="M1042.8,115.9c0,5.1-4.1,9.3-9.3,9.3s-9.3-4.1-9.3-9.3c0-5.1,4.1-9.3,9.3-9.3S1042.8,110.8,1042.8,115.9z"/>
</g>
<g>
	<circle class="st1" cx="1220.2" cy="374.9" r="6.2"/>
</g>
<g>
	<path class="st18" d="M1108.1,390.5c0,0-5.4,12.3-6.4,6.7c-2.2-11.9-17.1-21.9-21.1-28.2c-2.4-3.8-4.4-4.9-2.6-7.4
		c5.9-8.9,19.8-14.6,31.7-18.9c4.4-1.6,3.6,2.7,0.5,6c-2.8,3-19.8,12.1-18.6,14.2c1.4,2.5,10,10.2,21.7,12.8
		C1124.9,378.3,1114.7,388,1108.1,390.5z"/>
	<path class="st18" d="M1128.8,382.8c0,0-1.5-2.3,0.3,3.8c1.3,4.4,20,21.9,28.6,29.2c8.6,7.4,9,6.2,21.1,5.3c8.9-0.7,19-2,21.5-3.5
		c0,0,0.5-0.3-0.1-0.8c-0.5-0.5-2.7-1.7-2.9-2.8c-0.1-1.1-1-0.9-2.1-0.4c-1.1,0.5-21.1-0.4-25.9-1c-4.8-0.6-19.4-25.1-21.8-27.4
		C1145.2,382.9,1136.1,378.6,1128.8,382.8z"/>
	<path class="st19" d="M1130.6,360l-0.2,3.7c0,0-0.2,8-0.2,8.8c0,0.9,0.4,1.2,1.3,1.9c1.2,2.2-2.6,11.7-5.1,12
		c-2.6,0.3-14.4-0.9-15.2-1.5c-0.6-0.5,5.5-9.1,5.1-10.5c0.5-0.1,1.8,0.1,2.2-0.2c0.5-1.7,1.8-8.3,0.1-10.5
		C1117.3,362,1130.6,360,1130.6,360z"/>
	<path class="st20" d="M1108.1,388.4c2.2-1.2,3.4-0.2,5.7,2.3c2.3,2.4,4.5,2.2,5.8,2.8c1.3,0.5,0.8,22.6-7.7,25.9
		c-3.1,1.2-5.1-0.1-6.2-2.8C1103.6,411.8,1102.5,391.7,1108.1,388.4z"/>
	<path class="st21" d="M1100.6,446.4l-1.9,2.6c0,0,1.2,22.9,4.1,52.5c2.8,29.6,8.3,83.3,8.2,88.5c-0.1,5.2,7.2,2.7,8.1,1.2
		s-2.4-106.3-1.7-115.9c0.2-3.3,4.7-2.1,6.4,4.6c3.2,12.4,4.7,38.5,5.7,53.4c1.5,22.9,4.3,57.8,4.1,59.6c-0.2,1.8,6.3,3.7,7.6,0.7
		c0,0,0.3-0.4,0.2-2c-0.1-1.6,1.3-145.2-0.4-149.1S1104.5,436.7,1100.6,446.4z"/>
	<path class="st22" d="M1142.7,459.5c-1.9,4.1-11,6.7-18.2,7.7h0h0c-1.7,0.2-3.3,0.4-4.7,0.5c-0.9,0-1.8,0-2.5-0.2
		c-7.8-0.2-13.6-2-17.1-3.6c-2.1-0.2-3.3-1-3.8-2l0,0l0,0c-0.9-1.7-0.3-4.1,0.2-6.2c0.9-3.9,5.3-11.3,4.9-29.7
		c-0.4-17.7-3.1-47.5,13.4-51.3l0,0c0,0,1.8-1.1,3.2-0.5c0,0-3.5,5.9,0.3,8.8c0,0,0.1,0.1,0.2,0.1c0.5,0.3,1,0.5,1.6,0.6
		c4.1,0.5,10.4-4.9,11.5-9.3c0,0,1.8,0.1,2.8,1.5c0,0,0,0.1-0.1,0.2c0.5,0.6-0.3,1.3-0.8,1.7c-0.1,0.1-0.1,0.2-0.2,0.4
		c3.1,1.6,6.7,4.3,7.2,7.6c0.6,4.8,4.3,22.6,0.6,32.9C1134.9,436,1145.9,452.6,1142.7,459.5z"/>
	<path class="st23" d="M1114,592.4c0,0-2.2-2.5-3.9-2c-1.7,0.4-11.7,4.9-13.3,5.5c-1.6,0.6-3.3,2.9-2,4.3c1.9,2,18.6-0.2,23.7,0.2
		c1.6,0.1,3.6-3.3,2-8.1C1118.9,587.3,1119.9,593.2,1114,592.4z"/>
	<path class="st23" d="M1142.3,592.5c0.4,0.4,0.9,0.8,1.1,1.4c0.7,1.6,2.1,2.3,2.3,4.1c0.2,1.8-0.3,3.1-2.9,3.1c-2.5,0-2.3,0-4.1,0
		c-1.8,0-4.5,0.3-5.4-1.9c-0.4-0.9-0.7-5.4,0-6.4C1134.7,591.2,1138.8,589.6,1142.3,592.5z"/>
	<path class="st18" d="M1134.3,375.9c0,0-9.4,16.9-11.4,45.2c-2,28.2-1.1,47.1,20.5,53.9c0,0,1,0.3,1.8-1.7
		c3.6-9.6-8.4-51.7,1.5-77.3C1149.8,388.3,1145.7,378.7,1134.3,375.9z"/>
	<path class="st18" d="M1114.7,374.7c0,0-4.5,8.9-4.8,27c-0.3,18.1-3.2,49-4.3,55.4c-1,6.4-5.6,13.3-8.1,14c0,0-3.3,1-3.9-3.9
		c-0.5-4.9,5.2-23.8,6.2-45.1C1100.9,400.9,1099.5,376.8,1114.7,374.7z"/>
	<path class="st24" d="M1135.1,448.3c-0.1-0.5-0.7-0.9-1.2-0.7c-0.6,0.1-0.9,0.6-0.8,1.2c0,0,2.4,10.3,7.6,13.4
		c0.5,0.3,1.1,0.1,1.4-0.3c0.3-0.5,0.2-1.1-0.3-1.3C1137.4,457.8,1135.1,448.3,1135.1,448.3z"/>
	<path class="st24" d="M1098.8,444.2c0-0.5,0.5-0.8,1-0.8c0.5,0,0.9,0.5,0.8,1c0,0-0.9,9.4-5.2,12.7c-0.4,0.3-1,0.2-1.3-0.1
		c-0.3-0.4-0.3-0.9,0.1-1.2C1098,452.9,1098.8,444.2,1098.8,444.2z"/>
	<g>
		<g>
			<path class="st19" d="M1113.8,353.3c2.1,0.3,3.5,2.2,3.2,4.2c-0.3,2.1-2.2,3.5-4.2,3.2c-2.1-0.3-3.5-2.2-3.2-4.2
				C1109.9,354.4,1111.8,353,1113.8,353.3z"/>
			<path class="st19" d="M1139.3,356.9c2.1,0.3,3.5,2.2,3.2,4.2c-0.3,2.1-2.2,3.5-4.2,3.2c-2.1-0.3-3.5-2.2-3.2-4.2
				C1135.3,358,1137.3,356.6,1139.3,356.9z"/>
			<path class="st25" d="M1128.4,336.2L1128.4,336.2c7,1,11.9,7.5,10.9,14.5l-1.6,11.6c-1,7-7.5,11.9-14.5,10.9h0
				c-7-1-11.9-7.5-10.9-14.5l1.6-11.6C1114.8,340.1,1121.4,335.2,1128.4,336.2z"/>
			<path class="st26" d="M1139.3,354.3c0,0,3.8-1.5,4.3-6.1c0,0,4.9-0.2,6.3-3c1.3-2.8-11.4-16.7-16.4-19
				c-5.1-2.4-13.3,3.2-13.3,3.2s0.4-2.6-0.4-3.4c-0.8-0.8-5.7,0.7-6.7,9c0,0-2.7-1.3-3.7-1c-1,0.3-0.9,2.6,1.3,3.9
				c0,0-4.2,2.1-4.5,4.9c-0.3,2.8,3.8,2.8,3.8,2.8s0.1,6.7,3.3,8.4l1.8-1c0,0,0.9,0.2,0.9-1.4c0-1.6,0-2,0-2s2.8-2.7,2.8-5.5
				c0,0,4.4,1.6,6.4,0.9c2-0.7,0.9-3.2,0.9-3.2s5.7,5.4,10.3,5.7c0,0,0,1.9,0,3c0,1.1,0.3,2.7,1.4,3.3L1139.3,354.3z"/>
		</g>
	</g>
	<path class="st25" d="M1200.8,418.5c0.1,0,0.1,0,0.2,0c0.8,0,1.6-0.1,2.4-0.4c3.5-0.8,8.1-2.6,8.4-3.7c0.5-1.4-1.4-0.7-1.4-0.7
		s1.7-1.1,1.8-1.9c0.1-0.8-1.1-0.8-1.1-0.8s1.6-1.3,1.2-1.8c-0.4-0.5-1.7-0.5-1.7-0.5s1.3-1.1,0.7-1.5c-0.6-0.3-3.5,1.5-5,1.9
		c-0.8,0.2-2.8,0.7-4.3,1.1c-0.1-0.2-0.1-0.4,0-0.6c1.1-2.8-0.9-5.9-1.6-3.8c-0.3,1-0.6,2.3-1.5,3c-1.5,1.1-3,3.7-2.8,5.5
		C1197.2,417.2,1199,418.3,1200.8,418.5L1200.8,418.5z"/>
	<path class="st27" d="M1200.8,418.5c0.1,0,0.1,0,0.2,0c0.8,0,1.6-0.1,2.4-0.4c0.6-0.1,1.3-0.3,2-0.5c-1.3,0.2-2.4,0.3-3.3,0.2
		c-3.3-0.5-4.8-3.7-4.7-7.2c-0.8,1.2-1.3,2.6-1.3,3.7C1197.2,417.2,1199,418.3,1200.8,418.5L1200.8,418.5z"/>
	<path class="st24" d="M1101,394.7c0.4-10.1,1.2-12-2.7-14.7c-3.8-2.6-16.8-11.2-20.5-18.1c-1.4,2.4,0.4,3.5,2.8,7.2
		C1084.3,374.9,1097.4,384,1101,394.7z"/>
	<path class="st24" d="M1145.9,398.3c-0.6,1.7-1.1,3.6-1.5,5.4c4.9,4.6,9.9,9.2,13.2,12.1c8.6,7.4,9,6.2,21.1,5.3
		c7.9-0.6,16.9-1.7,20.5-3c-0.7-0.3-1.4-0.8-1.9-1.5c-7.4,1.5-19.4,3.8-25.6,3.4C1163.8,419.6,1149.8,403,1145.9,398.3z"/>
</g>
<g>
	<path class="st13" d="M1259.4,255.6h-150.8c-3.6,0-6.5-2.9-6.5-6.5v-7.4c0-3.6,2.9-6.5,6.5-6.5h150.8c3.6,0,6.5,2.9,6.5,6.5v7.4
		C1265.9,252.7,1263,255.6,1259.4,255.6z"/>
	<circle class="st28" cx="1113.2" cy="246.3" r="5.6"/>
	<circle class="st28" cx="1134.5" cy="246.3" r="5.6"/>
	<circle class="st28" cx="1153.9" cy="246.3" r="5.6"/>
	<circle class="st28" cx="1172.4" cy="246.3" r="5.6"/>
	<circle class="st28" cx="1190" cy="246.3" r="5.6"/>
	<line class="st29" x1="1203.9" y1="238" x2="1203.9" y2="252.8"/>
	<path class="st13" d="M1354.7,349h-150.8c-3.6,0-6.5-2.9-6.5-6.5v-7.4c0-3.6,2.9-6.5,6.5-6.5h150.8c3.6,0,6.5,2.9,6.5,6.5v7.4
		C1361.2,346.1,1358.3,349,1354.7,349z"/>
	<circle class="st28" cx="1208.5" cy="339.8" r="5.6"/>
	<circle class="st28" cx="1229.8" cy="339.8" r="5.6"/>
	<circle class="st28" cx="1249.2" cy="339.8" r="5.6"/>
	<line class="st29" x1="1262.2" y1="331.4" x2="1262.2" y2="346.3"/>
	<path class="st13" d="M1099.3,324H948.6c-3.6,0-6.5-2.9-6.5-6.5v-7.4c0-3.6,2.9-6.5,6.5-6.5h150.8c3.6,0,6.5,2.9,6.5,6.5v7.4
		C1105.8,321.1,1102.9,324,1099.3,324z"/>
	<circle class="st28" cx="953.2" cy="314.8" r="5.6"/>
	<circle class="st28" cx="974.4" cy="314.8" r="5.6"/>
	<circle class="st28" cx="993.9" cy="314.8" r="5.6"/>
	<circle class="st28" cx="1012.4" cy="314.8" r="5.6"/>
	<circle class="st28" cx="1029.9" cy="314.8" r="5.6"/>
	<circle class="st28" cx="1046.6" cy="314.8" r="5.6"/>
	<circle class="st28" cx="1061.4" cy="314.8" r="5.6"/>
	<line class="st29" x1="1073.4" y1="306.5" x2="1073.4" y2="321.3"/>
	<rect x="1257.6" y="226.9" class="st14" width="109.2" height="106.4"/>
	<text transform="matrix(1 0 0 1 1257.5575 244.174)" class="st30 st31 st32">X</text>
	<rect x="1344.5" y="318.5" class="st14" width="109.2" height="106.4"/>
	<text transform="matrix(1 0 0 1 1344.5292 335.7726)" class="st30 st31 st32">X</text>
	<rect x="1095.6" y="296.3" class="st14" width="109.2" height="106.4"/>
	<text transform="matrix(1 0 0 1 1095.6415 313.5666)" class="st30 st31 st32">X</text>
</g>
<path class="st33" d="M874.2,400.4h-261c-6.6,0-12-5.4-12-12v-16.7c0-6.6,5.4-12,12-12h261c6.6,0,12,5.4,12,12v16.7
	C886.2,395,880.8,400.4,874.2,400.4z"/>
<g class="st34">
	<defs>
		<rect id="SVGID_1_" x="634.2" y="237" class="st34" width="203.5" height="83.7"/>
	</defs>
	<clipPath id="SVGID_2_">
		<use xlink:href="#SVGID_1_"  style="overflow:visible;"/>
	</clipPath>
	<g class="st35">
		<defs>
			<rect id="SVGID_3_" x="635.3" y="247.6" width="367.2" height="63.4"/>
		</defs>
		<clipPath id="SVGID_4_">
			<use xlink:href="#SVGID_3_"  style="overflow:visible;"/>
		</clipPath>
		<g class="st36">
			<defs>
				<rect id="SVGID_5_" x="501.9" y="12.6" width="1465.7" height="824.5"/>
			</defs>
			<clipPath id="SVGID_6_">
				<use xlink:href="#SVGID_5_"  style="overflow:visible;"/>
			</clipPath>
			<path class="st37" d="M852.7,276l0.8-1c0.6,0.5,1.1,0.7,1.8,0.7c0.6,0,0.9-0.2,0.9-0.6v0c0-0.3-0.2-0.5-1.2-0.8
				c-1.2-0.3-2-0.7-2-1.9v0c0-1.1,0.9-1.9,2.1-1.9c0.9,0,1.7,0.3,2.3,0.8l-0.7,1c-0.5-0.4-1.1-0.6-1.6-0.6c-0.5,0-0.8,0.2-0.8,0.5v0
				c0,0.4,0.3,0.5,1.3,0.8c1.2,0.3,1.9,0.8,1.9,1.8v0c0,1.2-0.9,1.9-2.3,1.9C854.4,277,853.5,276.7,852.7,276"/>
		</g>
		<polygon class="st38" points="858.9,270.8 863.5,270.8 863.5,272 860.3,272 860.3,273.2 863.1,273.2 863.1,274.4 860.3,274.4 
			860.3,275.7 863.6,275.7 863.6,276.9 858.9,276.9 		"/>
		<g class="st36">
			<defs>
				<rect id="SVGID_7_" x="501.9" y="12.6" width="1465.7" height="824.5"/>
			</defs>
			<clipPath id="SVGID_8_">
				<use xlink:href="#SVGID_7_"  style="overflow:visible;"/>
			</clipPath>
			<path class="st39" d="M864.6,273.8L864.6,273.8c0-1.8,1.3-3.2,3.2-3.2c1.2,0,1.9,0.4,2.4,0.9l-0.9,1c-0.5-0.4-1-0.7-1.6-0.7
				c-1,0-1.8,0.9-1.8,1.9v0c0,1.1,0.7,1.9,1.8,1.9c0.7,0,1.1-0.3,1.6-0.7l0.9,0.9c-0.6,0.7-1.3,1.1-2.5,1.1
				C865.9,277,864.6,275.6,864.6,273.8"/>
			<path class="st39" d="M874.1,273.7c0.7,0,1-0.4,1-0.9v0c0-0.6-0.4-0.9-1.1-0.9h-1.3v1.8H874.1z M871.4,270.8h2.8
				c0.8,0,1.4,0.2,1.8,0.6c0.3,0.3,0.5,0.8,0.5,1.4v0c0,1-0.5,1.6-1.3,1.9l1.5,2.2h-1.6l-1.3-2h0h-1v2h-1.4V270.8z"/>
		</g>
		<polygon class="st38" points="877.8,270.8 882.5,270.8 882.5,272 879.2,272 879.2,273.2 882.1,273.2 882.1,274.4 879.2,274.4 
			879.2,275.7 882.5,275.7 882.5,276.9 877.8,276.9 		"/>
		<polygon class="st38" points="885.3,272 883.4,272 883.4,270.8 888.5,270.8 888.5,272 886.6,272 886.6,276.9 885.3,276.9 		"/>
		<path class="st38" d="M892.4,274.3l-0.8-2l-0.8,2H892.4z M891,270.7h1.2l2.6,6.2h-1.4l-0.6-1.4h-2.6l-0.6,1.4h-1.4L891,270.7z"/>
		<g class="st36">
			<defs>
				<rect id="SVGID_9_" x="501.9" y="12.6" width="1465.7" height="824.5"/>
			</defs>
			<clipPath id="SVGID_10_">
				<use xlink:href="#SVGID_9_"  style="overflow:visible;"/>
			</clipPath>
			<path class="st40" d="M898.6,273.7c0.7,0,1-0.4,1-0.9v0c0-0.6-0.4-0.9-1.1-0.9h-1.3v1.8H898.6z M895.9,270.8h2.8
				c0.8,0,1.4,0.2,1.8,0.6c0.3,0.3,0.5,0.8,0.5,1.4v0c0,1-0.5,1.6-1.3,1.9l1.5,2.2h-1.6l-1.3-2h0h-1v2h-1.4V270.8z"/>
		</g>
		<path class="st38" d="M903.5,268.7l1.1,0.5l-1.1,1.1h-1L903.5,268.7z M902.4,270.8h1.4v6.1h-1.4V270.8z"/>
		<path class="st38" d="M908.8,274.3l-0.8-2l-0.8,2H908.8z M907.4,270.7h1.2l2.6,6.2h-1.4l-0.6-1.4h-2.6l-0.6,1.4h-1.4L907.4,270.7z
			"/>
		<g class="st36">
			<defs>
				<rect id="SVGID_11_" x="501.9" y="12.6" width="1465.7" height="824.5"/>
			</defs>
			<clipPath id="SVGID_12_">
				<use xlink:href="#SVGID_11_"  style="overflow:visible;"/>
			</clipPath>
			<path class="st41" d="M917.3,275.7c1.1,0,1.9-0.7,1.9-1.8v0c0-1.1-0.7-1.9-1.9-1.9h-1v3.7H917.3z M914.9,270.8h2.4
				c1.9,0,3.3,1.3,3.3,3.1v0c0,1.7-1.3,3.1-3.3,3.1h-2.4V270.8z"/>
		</g>
		<polygon class="st38" points="921.9,270.8 926.5,270.8 926.5,272 923.2,272 923.2,273.2 926.1,273.2 926.1,274.4 923.2,274.4 
			923.2,275.7 926.6,275.7 926.6,276.9 921.9,276.9 		"/>
		<path class="st38" d="M856.8,284.8l-0.8-2l-0.8,2H856.8z M855.4,281.1h1.2l2.6,6.2h-1.4l-0.6-1.4h-2.6l-0.6,1.4h-1.4L855.4,281.1z
			"/>
		<g class="st36">
			<defs>
				<rect id="SVGID_13_" x="501.9" y="12.6" width="1465.7" height="824.5"/>
			</defs>
			<clipPath id="SVGID_14_">
				<use xlink:href="#SVGID_13_"  style="overflow:visible;"/>
			</clipPath>
			<path class="st42" d="M862.7,286.1c1.1,0,1.9-0.7,1.9-1.8v0c0-1.1-0.7-1.9-1.9-1.9h-1v3.7H862.7z M860.3,281.2h2.4
				c1.9,0,3.3,1.3,3.3,3.1v0c0,1.7-1.3,3.1-3.3,3.1h-2.4V281.2z"/>
		</g>
		<polygon class="st38" points="867.2,281.2 868.7,281.2 870.3,283.8 871.9,281.2 873.4,281.2 873.4,287.3 872,287.3 872,283.3 
			870.3,285.9 870.3,285.9 868.5,283.3 868.5,287.3 867.2,287.3 		"/>
		<rect x="875" y="281.2" class="st38" width="1.4" height="6.1"/>
		<polygon class="st38" points="878,281.2 879.3,281.2 882.1,285 882.1,281.2 883.5,281.2 883.5,287.3 882.3,287.3 879.4,283.4 
			879.4,287.3 878,287.3 		"/>
		<rect x="885.1" y="281.2" class="st38" width="1.4" height="6.1"/>
		<g class="st36">
			<defs>
				<rect id="SVGID_15_" x="501.9" y="12.6" width="1465.7" height="824.5"/>
			</defs>
			<clipPath id="SVGID_16_">
				<use xlink:href="#SVGID_15_"  style="overflow:visible;"/>
			</clipPath>
			<path class="st43" d="M887.7,286.4l0.8-1c0.6,0.5,1.1,0.7,1.8,0.7c0.6,0,0.9-0.2,0.9-0.6v0c0-0.3-0.2-0.5-1.2-0.8
				c-1.2-0.3-2-0.7-2-1.9v0c0-1.1,0.9-1.9,2.1-1.9c0.9,0,1.7,0.3,2.3,0.8l-0.7,1c-0.5-0.4-1.1-0.6-1.6-0.6c-0.5,0-0.8,0.2-0.8,0.5v0
				c0,0.4,0.3,0.5,1.3,0.8c1.2,0.3,1.9,0.8,1.9,1.8v0c0,1.2-0.9,1.9-2.3,1.9C889.4,287.4,888.4,287.1,887.7,286.4"/>
		</g>
		<polygon class="st38" points="895.2,282.4 893.4,282.4 893.4,281.2 898.4,281.2 898.4,282.4 896.6,282.4 896.6,287.3 895.2,287.3 
					"/>
		<g class="st36">
			<defs>
				<rect id="SVGID_17_" x="501.9" y="12.6" width="1465.7" height="824.5"/>
			</defs>
			<clipPath id="SVGID_18_">
				<use xlink:href="#SVGID_17_"  style="overflow:visible;"/>
			</clipPath>
			<path class="st44" d="M902.2,284.2c0.7,0,1-0.4,1-0.9v0c0-0.6-0.4-0.9-1.1-0.9h-1.3v1.8H902.2z M899.5,281.2h2.8
				c0.8,0,1.4,0.2,1.8,0.6c0.3,0.3,0.5,0.8,0.5,1.4v0c0,1-0.5,1.6-1.3,1.9l1.5,2.2h-1.6l-1.3-2h0h-1v2h-1.4V281.2z"/>
		</g>
		<path class="st38" d="M909.6,284.8l-0.8-2l-0.8,2H909.6z M908.2,281.1h1.2l2.6,6.2h-1.4l-0.6-1.4h-2.6l-0.6,1.4h-1.4L908.2,281.1z
			"/>
		<g class="st36">
			<defs>
				<rect id="SVGID_19_" x="501.9" y="12.6" width="1465.7" height="824.5"/>
			</defs>
			<clipPath id="SVGID_20_">
				<use xlink:href="#SVGID_19_"  style="overflow:visible;"/>
			</clipPath>
			<path class="st45" d="M912.5,284.3L912.5,284.3c0-1.8,1.3-3.2,3.2-3.2c1.2,0,1.9,0.4,2.4,0.9l-0.9,1c-0.5-0.4-1-0.7-1.6-0.7
				c-1,0-1.8,0.9-1.8,1.9v0c0,1.1,0.7,1.9,1.8,1.9c0.7,0,1.1-0.3,1.6-0.7l0.9,0.9c-0.6,0.7-1.3,1.1-2.5,1.1
				C913.8,287.4,912.5,286,912.5,284.3"/>
		</g>
		<rect x="919.3" y="281.2" class="st38" width="1.4" height="6.1"/>
		<g class="st36">
			<defs>
				<rect id="SVGID_21_" x="501.9" y="12.6" width="1465.7" height="824.5"/>
			</defs>
			<clipPath id="SVGID_22_">
				<use xlink:href="#SVGID_21_"  style="overflow:visible;"/>
			</clipPath>
			<path class="st46" d="M925.8,279.2l1.1,0.5l-1.1,1.1h-1L925.8,279.2z M927.1,284.3L927.1,284.3c0-1.1-0.8-1.9-1.9-1.9
				c-1.1,0-1.8,0.9-1.8,1.9v0c0,1.1,0.8,1.9,1.9,1.9S927.1,285.3,927.1,284.3 M922,284.3L922,284.3c0-1.8,1.4-3.2,3.3-3.2
				c1.9,0,3.3,1.4,3.3,3.2v0c0,1.7-1.4,3.2-3.3,3.2C923.3,287.4,922,286,922,284.3"/>
		</g>
		<polygon class="st38" points="929.8,281.2 931.1,281.2 933.9,285 933.9,281.2 935.3,281.2 935.3,287.3 934.1,287.3 931.1,283.4 
			931.1,287.3 929.8,287.3 		"/>
		<polygon class="st38" points="941.5,285 939.1,281.3 940.7,281.3 942.2,283.8 943.7,281.3 945.2,281.3 942.8,285 942.8,287.4 
			941.5,287.4 		"/>
		<polygon class="st38" points="948.8,281.3 953.4,281.3 953.4,282.5 950.1,282.5 950.1,283.8 953,283.8 953,285.1 950.1,285.1 
			950.1,287.4 948.8,287.4 		"/>
		<rect x="954.6" y="281.3" class="st38" width="1.4" height="6.1"/>
		<polygon class="st38" points="957.6,281.3 958.9,281.3 961.8,285.1 961.8,281.3 963.1,281.3 963.1,287.4 961.9,287.4 959,283.5 
			959,287.4 957.6,287.4 		"/>
		<path class="st38" d="M968.1,284.9l-0.8-2l-0.8,2H968.1z M966.7,281.2h1.2l2.6,6.2h-1.4l-0.6-1.4H966l-0.6,1.4h-1.4L966.7,281.2z"
			/>
		<polygon class="st38" points="971.6,281.3 972.9,281.3 975.7,285.1 975.7,281.3 977.1,281.3 977.1,287.4 975.9,287.4 972.9,283.5 
			972.9,287.4 971.6,287.4 		"/>
		<polygon class="st38" points="978.4,286.4 981.8,282.5 978.5,282.5 978.5,281.3 983.5,281.3 983.5,282.3 980.2,286.2 983.5,286.2 
			983.5,287.4 978.4,287.4 		"/>
		<path class="st38" d="M988.5,284.9l-0.8-2l-0.8,2H988.5z M987.1,281.2h1.2l2.6,6.2h-1.4l-0.6-1.4h-2.6l-0.6,1.4h-1.4L987.1,281.2z
			"/>
		<g class="st36">
			<defs>
				<rect id="SVGID_23_" x="501.9" y="12.6" width="1465.7" height="824.5"/>
			</defs>
			<clipPath id="SVGID_24_">
				<use xlink:href="#SVGID_23_"  style="overflow:visible;"/>
			</clipPath>
			<path class="st47" d="M991.6,286.5l0.8-1c0.6,0.5,1.1,0.7,1.8,0.7c0.6,0,0.9-0.2,0.9-0.6v0c0-0.3-0.2-0.5-1.2-0.8
				c-1.2-0.3-2-0.7-2-1.9v0c0-1.1,0.9-1.9,2.1-1.9c0.9,0,1.7,0.3,2.3,0.8l-0.7,1c-0.5-0.4-1.1-0.6-1.6-0.6c-0.5,0-0.8,0.2-0.8,0.5v0
				c0,0.4,0.3,0.5,1.3,0.8c1.2,0.3,1.9,0.8,1.9,1.8v0c0,1.2-0.9,1.9-2.3,1.9C993.2,287.5,992.3,287.2,991.6,286.5"/>
		</g>
		<rect x="843.2" y="261.6" class="st38" width="0.5" height="35"/>
		<g class="st36">
			<defs>
				<rect id="SVGID_25_" x="501.9" y="12.6" width="1465.7" height="824.5"/>
			</defs>
			<clipPath id="SVGID_26_">
				<use xlink:href="#SVGID_25_"  style="overflow:visible;"/>
			</clipPath>
			<path class="st48" d="M707.6,281.6c0.2,0.4,0.6,0.5,1.1,0.6c0.7,0,1.1-0.6,1.1-0.6l10.9-14c0.9-0.9,1.8-0.2,1.8-0.2
				c0.9,0.9,0.2,1.7,0.2,1.7l-2.4,3.1l0,0c-0.2,0.2-0.3,0.5-0.3,0.8c0,0.3,0.1,0.6,0.3,0.8v0l2.5,3.1l7.7-9.8l-3.1-3.9l-0.6-0.7
				c-0.5-0.7-1.6-0.9-1.6-0.9h-4.6c-1.2,0-1.9,0.8-1.9,0.8l-13,16.6L707.6,281.6z"/>
			<path class="st48" d="M707,273.1l-3.1-4c-0.6-1,0.3-1.7,0.3-1.7c1.2-0.7,1.8,0.4,1.8,0.4l2.6,3.3l3-3.9l-3.5-4.5
				c-0.8-1.2-2.1-1-2.1-1h-4.2c-1.3,0-1.9,0.8-1.9,0.8l-3.7,4.7l7.7,9.9L707,273.1z"/>
			<path class="st48" d="M719,276.5c0,0-0.4-0.6-1-0.5c-0.7,0-1,0.5-1,0.5l-11,14.2c-0.9,1-1.9,0.2-1.9,0.2
				c-0.9-0.9-0.2-1.7-0.2-1.7l2.5-3.2l0,0c0.2-0.2,0.3-0.5,0.3-0.8c0-0.3-0.1-0.6-0.3-0.8l0,0l-2.5-3.1l-7.8,9.9l4.3,5.5l6.8,0
				l13.7-17.5L719,276.5z"/>
			<path class="st48" d="M719.5,285l3.1,4c0.7,1-0.2,1.7-0.2,1.7c-1.2,0.8-1.9-0.4-1.9-0.4l-2.6-3.3l-3,3.9l4.4,5.6l6.7,0l4.3-5.5
				l-7.8-9.9L719.5,285z"/>
			<path class="st48" d="M730.3,280.8c-0.9,0-1.6-0.7-1.6-1.7s0.7-1.7,1.6-1.7s1.6,0.7,1.6,1.7S731.2,280.8,730.3,280.8 M730.3,276
				c-1.7,0-3.1,1.4-3.1,3.1c0,1.7,1.4,3.1,3.1,3.1s3.1-1.4,3.1-3.1C733.4,277.4,732,276,730.3,276"/>
			<path class="st48" d="M713.3,256.8c0.9,0,1.6,0.7,1.6,1.7c0,0.9-0.7,1.7-1.6,1.7c-0.9,0-1.6-0.7-1.6-1.7
				C711.6,257.6,712.3,256.8,713.3,256.8 M713.3,261.6c1.7,0,3.1-1.4,3.1-3.1s-1.4-3.1-3.1-3.1c-1.7,0-3.1,1.4-3.1,3.1
				S711.5,261.6,713.3,261.6"/>
			<path class="st48" d="M694.5,279.1c0-0.9,0.7-1.7,1.7-1.7c0.9,0,1.6,0.7,1.6,1.7c0,0.9-0.7,1.7-1.6,1.7
				C695.3,280.8,694.5,280,694.5,279.1 M699.3,279.1c0-1.7-1.4-3.1-3.1-3.1c-1.7,0-3.1,1.4-3.1,3.1c0,1.7,1.4,3.1,3.1,3.1
				C697.9,282.2,699.3,280.8,699.3,279.1"/>
			<path class="st48" d="M713.3,301.4c-0.9,0-1.6-0.7-1.6-1.7c0-0.9,0.7-1.7,1.6-1.7c0.9,0,1.6,0.7,1.6,1.7
				C714.9,300.6,714.2,301.4,713.3,301.4 M713.3,296.6c-1.7,0-3.1,1.4-3.1,3.1s1.4,3.1,3.1,3.1s3.1-1.4,3.1-3.1
				S715,296.6,713.3,296.6"/>
			<path class="st49" d="M680.5,258.5h-36v24c0,13.2,18,17.2,18,17.2h0c0,0,18-4,18-17.2V258.5z M679.6,259.4v23.2
				c0,2.8-0.9,5.4-2.6,7.7c-1.4,1.9-3.4,3.6-5.9,5.1c-3.8,2.3-7.7,3.3-8.6,3.5c-0.9-0.2-4.7-1.2-8.6-3.5c-2.5-1.5-4.5-3.2-5.9-5.1
				c-1.7-2.3-2.6-4.9-2.6-7.7v-23.2H679.6z"/>
			<path class="st49" d="M666.9,266.2V264h-2.3v2.1h-0.9V264h-2.3v2.1h-0.9V264h-2.3v2.2l1.1,1.9c0,0.1,0.1,0.1,0.1,0.2l0,10.1h1.1
				l0-3.6c0-0.9,1-1.6,2-1.6c1.1,0,2,0.8,2,1.6l0,3.6h1.1l0-3.8c0,0,0,0,0-0.1v-1.9c0,0,0,0,0,0l0-1.4c0,0,0,0,0,0v-0.6l0-2.3
				c0-0.1,0-0.2,0.1-0.2L666.9,266.2z"/>
			<path class="st49" d="M658.5,278.7l0-3.3l-0.4,0.2c-0.1,0.1-0.3,0.1-0.5,0l-0.5-0.3c0,0,0,0,0,0l0,1.3c0,0.1-0.1,0.3-0.2,0.3
				c0.1,0,0.1,0,0.1,0.1c0.6,0.5,0.6,1.1,0.5,1.7H658.5z"/>
			<path class="st49" d="M662.5,274.1c-0.7,0-1.2,0.5-1.2,0.7l0,3.6h2.3l0-3.6C663.6,274.6,663.2,274.1,662.5,274.1"/>
			<path class="st49" d="M649,278.7c-0.1-0.3-0.2-0.6-0.3-1c-0.1-0.7-0.1-1.3-0.1-1.4c0-0.2,0.1-0.4,0.3-0.4l1-0.3l-1.1-0.8
				c-0.1-0.1-0.2-0.2-0.2-0.4v-1.2c0-0.2,0.1-0.3,0.2-0.4l0.4-0.2v-0.4l-0.4-0.2c-0.2-0.1-0.3-0.2-0.3-0.4l0-1.5
				c0-0.2,0.2-0.4,0.4-0.4l1.4,0c0-0.4,0-0.9,0.1-1.3c0.1-0.6,0.4-1.2,0.6-1.4l-0.1-0.5c0-0.1,0-0.3,0.1-0.4
				c0.1-0.1,0.2-0.2,0.3-0.2h0.7c0.1,0,0.2,0,0.2,0.1l1.8,1.1h0.8c0.1,0,0.2,0,0.3,0.1c0.1,0.1,0.1,0.2,0.1,0.3l-0.1,1.4
				c0,0.1-0.1,0.2-0.1,0.3l0.6,0c0.1,0,0.2,0,0.3,0.1l0.3,0.3l0.2-0.1l0.3-0.7c0.1-0.2,0.2-0.3,0.4-0.3h1.2v-0.3l-1.1-1.9
				c0-0.1-0.1-0.1-0.1-0.2v-2.8c0-0.2,0.2-0.4,0.4-0.4h2.8h0.9h2.3h0.9h2.7c0.2,0,0.4,0.2,0.4,0.4v2.8c0,0.1,0,0.2-0.1,0.2l-1.1,1.9
				l0,0.2h1.2c0.2,0,0.3,0.1,0.4,0.3l0.3,0.7l0.2,0.1l0.3-0.3c0.1-0.1,0.2-0.1,0.3-0.1l0.6,0c-0.1-0.1-0.1-0.2-0.1-0.3l-0.1-1.4
				c0-0.1,0-0.2,0.1-0.3c0.1-0.1,0.2-0.1,0.3-0.1h0.8l1.8-1.1c0.1,0,0.2-0.1,0.2-0.1h0.7c0.1,0,0.3,0.1,0.3,0.2
				c0.1,0.1,0.1,0.2,0.1,0.4l-0.1,0.5c0.2,0.3,0.5,0.9,0.6,1.4c0.1,0.4,0.1,0.9,0.1,1.3l1.4,0c0.2,0,0.4,0.2,0.4,0.4l0,1.5
				c0,0.2-0.1,0.3-0.3,0.4l-0.4,0.2v0.4l0.4,0.2c0.1,0.1,0.2,0.2,0.2,0.4v1.2c0,0.1-0.1,0.3-0.2,0.4l-1.1,0.8l1,0.3
				c0.2,0.1,0.3,0.2,0.3,0.4c0,0,0,0.7-0.1,1.4c-0.1,0.4-0.2,0.7-0.3,1h1.6c0,0,0,0,0,0v-17.1h-30.3v17.1H649z"/>
			<path class="st49" d="M667.9,277c0,0,0.1-0.1,0.1-0.1c-0.1-0.1-0.2-0.2-0.2-0.3l0-1.3c0,0,0,0,0,0l-0.5,0.3
				c-0.1,0.1-0.3,0.1-0.5,0l-0.4-0.2l0,3.3h0.9C667.3,278.1,667.3,277.5,667.9,277"/>
			<path class="st49" d="M673.8,287.8c-0.2,0-0.4-0.2-0.4-0.4v-2.9c0-0.2-0.1-0.5-0.3-0.7c-0.2-0.2-0.5-0.4-0.9-0.4
				c-0.7,0-1.1,0.5-1.1,1.1v2.9c0,0.1,0,0.2-0.1,0.3c-0.1,0.1-0.2,0.1-0.3,0.1h-2.6c-0.2,0-0.4-0.2-0.4-0.4v-2.9
				c0-0.2-0.1-0.5-0.3-0.7c-0.2-0.2-0.5-0.4-0.9-0.4c-0.3,0-0.6,0.1-0.8,0.3l2.2,11c3-1.4,6.7-3.6,8.6-7H673.8z"/>
			<path class="st49" d="M666.8,295.1l-3-15.5h-2.5l-3,15.5c0,0,0,0,0,0.1c2.1,0.9,3.8,1.3,4.3,1.5C663,296.5,664.7,296,666.8,295.1
				C666.8,295.2,666.8,295.1,666.8,295.1"/>
			<path class="st49" d="M659.5,283.8c-0.2-0.2-0.5-0.3-0.8-0.3c0,0,0,0,0,0c-0.4,0-0.7,0.2-0.9,0.4c-0.2,0.2-0.3,0.5-0.3,0.7v2.9
				c0,0.2-0.2,0.4-0.4,0.4h-2.6c-0.1,0-0.2,0-0.3-0.1c-0.1-0.1-0.1-0.2-0.1-0.3v-2.9c-0.1-0.5-0.5-1-1.1-1.1c0,0,0,0,0,0
				c-0.4,0-0.7,0.2-0.9,0.4c-0.2,0.2-0.3,0.5-0.3,0.7v2.9c0,0.2-0.2,0.4-0.4,0.4h-2.4c1.9,3.4,5.5,5.6,8.6,7L659.5,283.8z"/>
			<path class="st49" d="M677.6,279.6h-13l0.6,3.3c0.3-0.2,0.6-0.2,0.9-0.2c0.6,0,1.1,0.2,1.5,0.6c0.4,0.4,0.6,0.9,0.6,1.3v2.5h1.7
				v-2.5c0,0,0,0,0,0c0.1-1.1,1-1.9,2-1.9c0.6,0,1.1,0.2,1.5,0.6c0.4,0.4,0.6,0.9,0.6,1.3v2.5h2.4c0.6-1.3,1-2.8,1-4.5L677.6,279.6
				C677.6,279.6,677.6,279.6,677.6,279.6"/>
			<path class="st49" d="M650.8,287v-2.5c0-0.5,0.2-0.9,0.6-1.3c0.4-0.4,1-0.6,1.5-0.6c1.1,0,1.9,0.8,2,1.9c0,0,0,0,0,0v2.5h1.7
				v-2.5c0-0.5,0.2-0.9,0.6-1.3c0.4-0.4,1-0.6,1.5-0.6c0.3,0,0.6,0.1,0.9,0.2l0.6-3.2h-13v2.9c0,1.7,0.4,3.2,1,4.5H650.8z"/>
			<path class="st49" d="M651.8,277.8h0.7c0.1,0.1,0.1,0.2,0.1,0.3c0,0.1,0,0.1,0,0.2c0,0.2,0,0.3-0.1,0.4H650
				c-0.4-0.2-0.5-1.2-0.6-2l1.1-0.3c0.2-0.1,0.3-0.2,0.3-0.4v-0.4c0-0.1-0.1-0.3-0.2-0.4l-1.2-0.9v-0.7l0.4-0.2
				c0.1-0.1,0.2-0.2,0.2-0.4v-1c0-0.2-0.1-0.3-0.3-0.4l-0.4-0.2l0-0.7l1.2,0l0.6,0.9l0,1.3l-0.4,1.2c0,0.1,0,0.3,0.1,0.4
				c0.1,0.1,0.2,0.2,0.4,0.2h0.3c0.2,0,0.4-0.2,0.4-0.4c0-0.2,0.1-0.8,0.2-1c0.1-0.2,0.4-0.6,0.6-0.9c0.1-0.2,0.1-0.4,0-0.6
				l-1.5-1.7c0-0.3-0.1-0.9,0-1.3c0.1-0.5,0.4-1.1,0.6-1.3c0.1-0.1,0.1-0.2,0.1-0.3l0-0.2h0.1l1.8,1.1c0.1,0,0.2,0.1,0.2,0.1h0.5
				l0,0.7l-0.6,0.2c-0.2,0.1-0.3,0.2-0.3,0.4l0,0.5c0,0.2,0.2,0.4,0.4,0.4l1.5,0l0.4,0.4c0.2,0.2,0.4,0.2,0.6,0c0,0,0.7-0.5,0.7-0.6
				l0.2-0.5h0.9v1v0.6c0,0-1.6,0.6-1.8,0.6c-0.1,0.1-0.2,0.6-0.1,0.7c0,0.1,0,0.2,0.2,0.3c0,0,0.5,0.4,0.6,0.4l0.5-0.4l0.6,0l0,1.5
				l-0.6,0.4l-1.9-1.3c-0.2-0.1-0.5-0.1-0.6,0.1l-0.3,0.4c-0.1,0.2-0.1,0.4,0,0.6l1.1,1l0,0.8l-1.1,0.5c-0.2,0.1-0.3,0.2-0.3,0.4
				v0.2c0,0.2,0.2,0.4,0.4,0.4h1.3c0.2,0.3,0.1,0.7,0,0.9h-3c-0.1-0.1-0.2-0.3-0.2-0.5c0-0.1,0-0.1,0-0.2c0-0.3,0-0.6,0.1-0.7
				l0.7-0.9c0.1-0.1,0.1-0.2,0.1-0.3l0-0.4c0-0.2-0.1-0.3-0.2-0.4c-0.1-0.1-0.3-0.1-0.4,0l-1.1,0.5c-0.1,0.1-0.2,0.2-0.3,0.3
				l-0.1,0.4l-0.6,0.2c-0.2,0.1-0.3,0.2-0.3,0.4v0.2C651.3,277.6,651.5,277.8,651.8,277.8"/>
			<path class="st49" d="M673.2,277.8h-0.7c-0.1,0.1-0.1,0.2-0.1,0.3c0,0.1,0,0.1,0,0.2c0,0.2,0,0.3,0.1,0.4h2.5
				c0.4-0.2,0.5-1.2,0.6-2l-1.1-0.3c-0.2-0.1-0.3-0.2-0.3-0.4v-0.4c0-0.1,0.1-0.3,0.2-0.4l1.2-0.9v-0.7l-0.4-0.2
				c-0.1-0.1-0.2-0.2-0.2-0.4v-1c0-0.2,0.1-0.3,0.3-0.4l0.4-0.2l0-0.7l-1.2,0l-0.6,0.9l0,1.3l0.4,1.2c0,0.1,0,0.3-0.1,0.4
				c-0.1,0.1-0.2,0.2-0.4,0.2h-0.3c-0.2,0-0.4-0.2-0.4-0.4c0-0.2-0.1-0.8-0.2-1c-0.1-0.2-0.4-0.6-0.6-0.9c-0.1-0.2-0.1-0.4,0-0.6
				l1.5-1.7c0-0.3,0.1-0.9,0-1.3c-0.1-0.5-0.4-1.1-0.6-1.3c-0.1-0.1-0.1-0.2-0.1-0.3l0-0.2H673l-1.8,1.1c-0.1,0-0.2,0.1-0.2,0.1
				h-0.5l0,0.7l0.6,0.2c0.2,0.1,0.3,0.2,0.3,0.4l0,0.5c0,0.2-0.2,0.4-0.4,0.4l-1.5,0l-0.4,0.4c-0.2,0.2-0.4,0.2-0.6,0
				c0,0-0.7-0.5-0.7-0.6l-0.2-0.5h-0.9v1v0.6c0,0,1.6,0.6,1.8,0.6c0.1,0.1,0.2,0.6,0.1,0.7c0,0.1,0,0.2-0.2,0.3c0,0-0.5,0.4-0.6,0.4
				l-0.5-0.4l-0.6,0l0,1.5l0.6,0.4l1.9-1.3c0.2-0.1,0.5-0.1,0.6,0.1l0.3,0.4c0.1,0.2,0.1,0.4,0,0.6l-1.1,1l0,0.8l1.1,0.5
				c0.2,0.1,0.3,0.2,0.3,0.4v0.2c0,0.2-0.2,0.4-0.4,0.4h-1.3c-0.2,0.3-0.1,0.7,0,0.9h3c0.1-0.1,0.2-0.3,0.2-0.5c0-0.1,0-0.1,0-0.2
				c0-0.3,0-0.6-0.1-0.7l-0.7-0.9c-0.1-0.1-0.1-0.2-0.1-0.3l0-0.4c0-0.2,0.1-0.3,0.2-0.4c0.1-0.1,0.3-0.1,0.4,0l1.1,0.5
				c0.1,0.1,0.2,0.2,0.3,0.3l0.1,0.4l0.6,0.2c0.2,0.1,0.3,0.2,0.3,0.4v0.2C673.6,277.6,673.4,277.8,673.2,277.8"/>
			<path class="st49" d="M742.9,273.8L742.9,273.8c0-1.7,1.2-3.2,3.1-3.2c1,0,1.7,0.3,2.3,0.8l-0.4,0.5c-0.5-0.4-1-0.7-1.9-0.7
				c-1.4,0-2.3,1.1-2.3,2.5v0c0,1.5,0.9,2.6,2.4,2.6c0.7,0,1.4-0.3,1.8-0.6v-1.5H746v-0.6h2.5v2.4c-0.6,0.5-1.4,0.9-2.5,0.9
				C744.1,277,742.9,275.6,742.9,273.8"/>
			<path class="st49" d="M756.3,273.8L756.3,273.8c0-1.4-1-2.6-2.4-2.6c-1.4,0-2.4,1.1-2.4,2.5v0c0,1.4,1,2.5,2.4,2.5
				C755.3,276.4,756.3,275.2,756.3,273.8 M750.8,273.8L750.8,273.8c0-1.7,1.3-3.2,3.1-3.2c1.9,0,3.1,1.5,3.1,3.2v0
				c0,1.7-1.3,3.2-3.1,3.2C752,277,750.8,275.5,750.8,273.8"/>
			<path class="st49" d="M762.1,274.1h-1.9v2.2h2.1c0.9,0,1.5-0.4,1.5-1.1v0C763.8,274.5,763.2,274.1,762.1,274.1 M763.4,272.4
				c0-0.6-0.5-1-1.4-1h-1.9v2.1h1.8C762.8,273.5,763.4,273.1,763.4,272.4L763.4,272.4z M759.5,270.8h2.6c0.7,0,1.3,0.2,1.6,0.5
				c0.3,0.3,0.4,0.6,0.4,1v0c0,0.8-0.5,1.2-1,1.4c0.7,0.2,1.3,0.6,1.3,1.5v0c0,1.1-0.9,1.7-2.2,1.7h-2.7V270.8z"/>
		</g>
		<rect x="766.9" y="270.8" class="st38" width="0.7" height="6.1"/>
		<polygon class="st38" points="770.4,270.8 774.9,270.8 774.9,271.4 771.1,271.4 771.1,273.5 774.5,273.5 774.5,274.1 771.1,274.1 
			771.1,276.3 774.9,276.3 774.9,276.9 770.4,276.9 		"/>
		<g class="st36">
			<defs>
				<rect id="SVGID_27_" x="501.9" y="12.6" width="1465.7" height="824.5"/>
			</defs>
			<clipPath id="SVGID_28_">
				<use xlink:href="#SVGID_27_"  style="overflow:visible;"/>
			</clipPath>
			<path class="st50" d="M779.8,273.9c0.9,0,1.6-0.5,1.6-1.3v0c0-0.8-0.6-1.2-1.6-1.2h-1.9v2.5H779.8z M777.2,270.8h2.6
				c0.8,0,1.4,0.2,1.7,0.6c0.3,0.3,0.5,0.7,0.5,1.2v0c0,1-0.7,1.6-1.7,1.8l1.9,2.5h-0.9l-1.8-2.4h-1.8v2.4h-0.7V270.8z"/>
		</g>
		<polygon class="st38" points="784.6,270.8 785.2,270.8 789.1,275.7 789.1,270.8 789.8,270.8 789.8,276.9 789.2,276.9 785.3,271.9 
			785.3,276.9 784.6,276.9 		"/>
		<g class="st36">
			<defs>
				<rect id="SVGID_29_" x="501.9" y="12.6" width="1465.7" height="824.5"/>
			</defs>
			<clipPath id="SVGID_30_">
				<use xlink:href="#SVGID_29_"  style="overflow:visible;"/>
			</clipPath>
			<path class="st51" d="M797.8,273.8L797.8,273.8c0-1.4-1-2.6-2.4-2.6c-1.4,0-2.4,1.1-2.4,2.5v0c0,1.4,1,2.5,2.4,2.5
				S797.8,275.2,797.8,273.8 M792.2,273.8L792.2,273.8c0-1.7,1.3-3.2,3.1-3.2c1.9,0,3.1,1.5,3.1,3.2v0c0,1.7-1.3,3.2-3.1,3.2
				C793.5,277,792.2,275.5,792.2,273.8"/>
			<path class="st51" d="M804.9,271.4v4.9h1.4c1.6,0,2.5-1.1,2.5-2.4v0c0-1.4-1-2.4-2.5-2.4H804.9z M804.2,270.8h2.1
				c1.9,0,3.3,1.3,3.3,3.1v0c0,1.7-1.3,3.1-3.3,3.1h-2.1V270.8z"/>
		</g>
		<polygon class="st38" points="811.8,270.8 816.2,270.8 816.2,271.4 812.5,271.4 812.5,273.5 815.8,273.5 815.8,274.1 812.5,274.1 
			812.5,276.3 816.3,276.3 816.3,276.9 811.8,276.9 		"/>
		<polygon class="st38" points="821.8,270.8 822.5,270.8 822.5,276.3 825.9,276.3 825.9,276.9 821.8,276.9 		"/>
		<path class="st38" d="M831.9,274.6l-1.4-3.1l-1.4,3.1H831.9z M830.2,270.7h0.6l2.8,6.2h-0.7l-0.7-1.6h-3.3l-0.7,1.6h-0.7
			L830.2,270.7z"/>
		<g class="st36">
			<defs>
				<rect id="SVGID_31_" x="501.9" y="12.6" width="1465.7" height="824.5"/>
			</defs>
			<clipPath id="SVGID_32_">
				<use xlink:href="#SVGID_31_"  style="overflow:visible;"/>
			</clipPath>
			<path class="st52" d="M742.8,284.4L742.8,284.4c0-1.8,1.3-3.2,3.2-3.2c1.2,0,1.9,0.4,2.4,0.9l-0.9,1c-0.5-0.4-1-0.7-1.6-0.7
				c-1,0-1.8,0.9-1.8,1.9v0c0,1.1,0.7,1.9,1.8,1.9c0.7,0,1.1-0.3,1.6-0.7l0.9,0.9c-0.6,0.7-1.3,1.1-2.5,1.1
				C744.1,287.5,742.8,286.1,742.8,284.4"/>
		</g>
		<rect x="749.5" y="281.3" class="st38" width="1.4" height="6.1"/>
		<g class="st36">
			<defs>
				<rect id="SVGID_33_" x="501.9" y="12.6" width="1465.7" height="824.5"/>
			</defs>
			<clipPath id="SVGID_34_">
				<use xlink:href="#SVGID_33_"  style="overflow:visible;"/>
			</clipPath>
			<path class="st53" d="M752.5,284.8v-3.5h1.4v3.5c0,1,0.5,1.5,1.3,1.5c0.8,0,1.3-0.5,1.3-1.5v-3.5h1.4v3.5c0,1.9-1,2.8-2.7,2.8
				C753.5,287.5,752.5,286.6,752.5,284.8"/>
			<path class="st53" d="M761.7,286.2c1.1,0,1.9-0.7,1.9-1.8v0c0-1.1-0.7-1.9-1.9-1.9h-1v3.7H761.7z M759.3,281.3h2.4
				c1.9,0,3.3,1.3,3.3,3.1v0c0,1.7-1.3,3.1-3.3,3.1h-2.4V281.3z"/>
		</g>
		<path class="st38" d="M769.4,284.9l-0.8-2l-0.8,2H769.4z M768,281.2h1.2l2.6,6.2h-1.4l-0.6-1.4h-2.6l-0.6,1.4h-1.4L768,281.2z"/>
		<g class="st36">
			<defs>
				<rect id="SVGID_35_" x="501.9" y="12.6" width="1465.7" height="824.5"/>
			</defs>
			<clipPath id="SVGID_36_">
				<use xlink:href="#SVGID_35_"  style="overflow:visible;"/>
			</clipPath>
			<path class="st54" d="M775.2,286.2c1.1,0,1.9-0.7,1.9-1.8v0c0-1.1-0.7-1.9-1.9-1.9h-1v3.7H775.2z M772.9,281.3h2.4
				c1.9,0,3.3,1.3,3.3,3.1v0c0,1.7-1.3,3.1-3.3,3.1h-2.4V281.3z"/>
			<path class="st54" d="M784.8,286.2c1.1,0,1.9-0.7,1.9-1.8v0c0-1.1-0.7-1.9-1.9-1.9h-1v3.7H784.8z M782.4,281.3h2.4
				c1.9,0,3.3,1.3,3.3,3.1v0c0,1.7-1.3,3.1-3.3,3.1h-2.4V281.3z"/>
		</g>
		<polygon class="st38" points="789.4,281.3 794,281.3 794,282.5 790.7,282.5 790.7,283.7 793.6,283.7 793.6,284.9 790.7,284.9 
			790.7,286.2 794.1,286.2 794.1,287.4 789.4,287.4 		"/>
		<polygon class="st38" points="798,281.3 799.4,281.3 801,283.9 802.7,281.3 804.1,281.3 804.1,287.4 802.8,287.4 802.8,283.4 
			801,286 801,286 799.3,283.4 799.3,287.4 798,287.4 		"/>
		<path class="st38" d="M808.3,279.3l1.1,0.5l-1.1,1.1h-1L808.3,279.3z M805.7,281.3h4.6v1.2h-3.3v1.2h2.9v1.2h-2.9v1.3h3.3v1.2
			h-4.7V281.3z"/>
		<polygon class="st38" points="813.4,284.3 811.4,281.3 812.9,281.3 814.2,283.3 815.5,281.3 817.1,281.3 815,284.3 817.1,287.4 
			815.6,287.4 814.2,285.3 812.8,287.4 811.3,287.4 		"/>
		<rect x="818.2" y="281.3" class="st38" width="1.4" height="6.1"/>
		<g class="st36">
			<defs>
				<rect id="SVGID_37_" x="501.9" y="12.6" width="1465.7" height="824.5"/>
			</defs>
			<clipPath id="SVGID_38_">
				<use xlink:href="#SVGID_37_"  style="overflow:visible;"/>
			</clipPath>
			<path class="st55" d="M820.8,284.4L820.8,284.4c0-1.8,1.3-3.2,3.2-3.2c1.2,0,1.9,0.4,2.4,0.9l-0.9,1c-0.5-0.4-1-0.7-1.6-0.7
				c-1,0-1.8,0.9-1.8,1.9v0c0,1.1,0.7,1.9,1.8,1.9c0.7,0,1.1-0.3,1.6-0.7l0.9,0.9c-0.6,0.7-1.3,1.1-2.5,1.1
				C822.2,287.5,820.8,286.1,820.8,284.4"/>
			<path class="st55" d="M832.3,284.4L832.3,284.4c0-1.1-0.8-1.9-1.9-1.9c-1.1,0-1.8,0.9-1.8,1.9v0c0,1.1,0.8,1.9,1.9,1.9
				C831.5,286.3,832.3,285.4,832.3,284.4 M827.1,284.4L827.1,284.4c0-1.8,1.4-3.2,3.3-3.2c1.9,0,3.3,1.4,3.3,3.2v0
				c0,1.7-1.4,3.2-3.3,3.2C828.5,287.5,827.1,286.1,827.1,284.4"/>
			<path class="st56" d="M1204.1,281.7c0.2,0.4,0.6,0.5,1.1,0.6c0.7,0,1.1-0.6,1.1-0.6l10.9-14c0.9-0.9,1.8-0.2,1.8-0.2
				c0.9,0.9,0.2,1.7,0.2,1.7l-2.4,3.1v0c-0.2,0.2-0.3,0.5-0.3,0.8c0,0.3,0.1,0.6,0.3,0.8v0l2.5,3.1l7.7-9.8l-3.1-3.9l-0.6-0.7
				c-0.5-0.7-1.6-0.9-1.6-0.9h-4.6c-1.2,0-1.9,0.9-1.9,0.9l-13,16.6L1204.1,281.7z"/>
			<path class="st56" d="M1203.5,273.1l-3.1-4c-0.6-1,0.3-1.7,0.3-1.7c1.2-0.7,1.8,0.4,1.8,0.4l2.6,3.3l3-3.9l-3.5-4.5
				c-0.8-1.2-2.1-1-2.1-1h-4.2c-1.3,0-1.9,0.8-1.9,0.8l-3.7,4.7l7.7,9.9L1203.5,273.1z"/>
			<path class="st56" d="M1215.5,276.5c0,0-0.4-0.6-1-0.5c-0.7,0-1,0.5-1,0.5l-11,14.2c-0.9,1-1.9,0.2-1.9,0.2
				c-0.9-0.9-0.2-1.7-0.2-1.7l2.5-3.2v0c0.2-0.2,0.3-0.5,0.3-0.8c0-0.3-0.1-0.6-0.3-0.8v0l-2.5-3.1l-7.8,10l4.3,5.5l6.8,0l13.7-17.5
				L1215.5,276.5z"/>
			<path class="st56" d="M1216.1,285l3.1,4c0.7,1-0.2,1.7-0.2,1.7c-1.2,0.8-1.9-0.4-1.9-0.4l-2.6-3.3l-3,3.9l4.4,5.6l6.7,0l4.3-5.5
				l-7.8-9.9L1216.1,285z"/>
			<path class="st56" d="M1226.8,280.8c-0.9,0-1.7-0.7-1.7-1.7c0-0.9,0.7-1.7,1.7-1.7c0.9,0,1.7,0.7,1.7,1.7
				C1228.5,280,1227.7,280.8,1226.8,280.8 M1226.8,276c-1.7,0-3.1,1.4-3.1,3.1c0,1.7,1.4,3.1,3.1,3.1s3.1-1.4,3.1-3.1
				C1229.9,277.4,1228.5,276,1226.8,276"/>
			<path class="st56" d="M1209.8,256.8c0.9,0,1.7,0.7,1.7,1.7c0,0.9-0.7,1.7-1.7,1.7c-0.9,0-1.7-0.7-1.7-1.7
				C1208.1,257.6,1208.9,256.8,1209.8,256.8 M1209.8,261.6c1.7,0,3.1-1.4,3.1-3.1c0-1.7-1.4-3.1-3.1-3.1s-3.1,1.4-3.1,3.1
				C1206.6,260.2,1208,261.6,1209.8,261.6"/>
			<path class="st56" d="M1191,279.1c0-0.9,0.7-1.7,1.7-1.7c0.9,0,1.7,0.7,1.7,1.7c0,0.9-0.7,1.7-1.7,1.7
				C1191.8,280.8,1191,280,1191,279.1 M1195.8,279.1c0-1.7-1.4-3.1-3.1-3.1s-3.1,1.4-3.1,3.1c0,1.7,1.4,3.1,3.1,3.1
				S1195.8,280.8,1195.8,279.1"/>
			<path class="st56" d="M1209.8,301.4c-0.9,0-1.7-0.7-1.7-1.7c0-0.9,0.7-1.7,1.7-1.7c0.9,0,1.7,0.7,1.7,1.7
				C1211.4,300.6,1210.7,301.4,1209.8,301.4 M1209.8,296.6c-1.7,0-3.1,1.4-3.1,3.1c0,1.7,1.4,3.1,3.1,3.1c1.7,0,3.1-1.4,3.1-3.1
				C1212.9,298,1211.5,296.6,1209.8,296.6"/>
			<path class="st55" d="M1177,258.5H1141v24c0,13.2,18,17.2,18,17.2h0c0,0,18-4,18-17.2V258.5z M1176.1,259.4v23.2
				c0,2.8-0.9,5.4-2.6,7.7c-1.4,1.9-3.4,3.6-5.9,5.1c-3.8,2.3-7.7,3.3-8.6,3.5c-0.9-0.2-4.7-1.2-8.6-3.5c-2.5-1.5-4.5-3.2-5.9-5.1
				c-1.7-2.3-2.6-4.9-2.6-7.7v-23.2H1176.1z"/>
			<path class="st55" d="M1163.4,266.2V264h-2.3v2.1h-0.9V264h-2.3v2.1h-0.9V264h-2.3v2.2l1.1,1.9c0,0.1,0.1,0.1,0.1,0.2l0,10.1h1.1
				l0-3.6c0-0.9,1-1.6,2-1.6s2,0.8,2,1.6l0,3.6h1.1l0-3.8c0,0,0,0,0-0.1v-1.9c0,0,0,0,0,0l0-1.4c0,0,0,0,0,0v-0.6l0-2.3
				c0-0.1,0-0.2,0.1-0.2L1163.4,266.2z"/>
			<path class="st55" d="M1155,278.7l0-3.4l-0.4,0.2c-0.1,0.1-0.3,0.1-0.5,0l-0.5-0.3c0,0,0,0,0,0l0,1.3c0,0.1-0.1,0.3-0.2,0.3
				c0.1,0,0.1,0,0.1,0.1c0.6,0.5,0.6,1.2,0.5,1.7H1155z"/>
			<path class="st55" d="M1159,274.1c-0.7,0-1.2,0.5-1.2,0.7l0,3.6h2.3l0-3.6C1160.1,274.6,1159.7,274.1,1159,274.1"/>
			<path class="st55" d="M1145.5,278.7c-0.1-0.3-0.2-0.6-0.3-1c-0.1-0.7-0.1-1.3-0.1-1.4c0-0.2,0.1-0.4,0.3-0.4l1-0.3l-1.1-0.8
				c-0.1-0.1-0.2-0.2-0.2-0.4v-1.2c0-0.2,0.1-0.3,0.2-0.4l0.4-0.2v-0.4l-0.4-0.2c-0.2-0.1-0.3-0.2-0.3-0.4l0-1.5
				c0-0.2,0.2-0.4,0.4-0.4l1.4,0c0-0.4,0-0.9,0.1-1.3c0.1-0.6,0.4-1.2,0.6-1.4l-0.1-0.5c0-0.1,0-0.3,0.1-0.4
				c0.1-0.1,0.2-0.2,0.3-0.2h0.7c0.1,0,0.2,0,0.2,0.1l1.8,1.1h0.8c0.1,0,0.2,0,0.3,0.1c0.1,0.1,0.1,0.2,0.1,0.3l-0.1,1.4
				c0,0.1-0.1,0.2-0.1,0.3l0.6,0c0.1,0,0.2,0,0.3,0.1l0.3,0.3l0.2-0.1l0.3-0.7c0.1-0.2,0.2-0.3,0.4-0.3h1.2v-0.3l-1.1-1.9
				c0-0.1-0.1-0.1-0.1-0.2v-2.8c0-0.2,0.2-0.4,0.4-0.4h2.8h0.9h2.3h0.9h2.7c0.2,0,0.4,0.2,0.4,0.4v2.8c0,0.1,0,0.2-0.1,0.2l-1.1,1.9
				v0.2h1.2c0.2,0,0.3,0.1,0.4,0.3l0.3,0.7l0.2,0.1l0.3-0.3c0.1-0.1,0.2-0.1,0.3-0.1l0.6,0c-0.1-0.1-0.1-0.2-0.1-0.3l-0.1-1.4
				c0-0.1,0-0.2,0.1-0.3c0.1-0.1,0.2-0.1,0.3-0.1h0.8l1.8-1.1c0.1,0,0.2-0.1,0.2-0.1h0.7c0.1,0,0.3,0.1,0.3,0.2
				c0.1,0.1,0.1,0.2,0.1,0.4l-0.1,0.5c0.2,0.3,0.5,0.9,0.6,1.4c0.1,0.4,0.1,0.9,0.1,1.3l1.4,0c0.2,0,0.4,0.2,0.4,0.4l0,1.5
				c0,0.2-0.1,0.3-0.3,0.4l-0.4,0.2v0.4l0.4,0.2c0.1,0.1,0.2,0.2,0.2,0.4v1.2c0,0.1-0.1,0.3-0.2,0.4l-1.1,0.8l1,0.3
				c0.2,0.1,0.3,0.2,0.3,0.4c0,0,0,0.7-0.1,1.4c-0.1,0.4-0.2,0.7-0.3,1h1.6c0,0,0,0,0,0v-17.1h-30.3v17.1H1145.5z"/>
			<path class="st55" d="M1164.4,277c0,0,0.1-0.1,0.1-0.1c-0.1-0.1-0.2-0.2-0.2-0.3l0-1.3c0,0,0,0,0,0l-0.5,0.3
				c-0.1,0.1-0.3,0.1-0.5,0l-0.4-0.2l0,3.3h0.9C1163.8,278.1,1163.8,277.5,1164.4,277"/>
			<path class="st55" d="M1170.3,287.9c-0.2,0-0.4-0.2-0.4-0.4v-2.9c0-0.2-0.1-0.5-0.3-0.7c-0.2-0.2-0.5-0.4-0.9-0.4
				c-0.7,0-1.1,0.5-1.1,1.1v2.9c0,0.1,0,0.2-0.1,0.3s-0.2,0.1-0.3,0.1h-2.6c-0.2,0-0.4-0.2-0.4-0.4v-2.9c0-0.2-0.1-0.5-0.3-0.7
				c-0.2-0.2-0.5-0.4-0.9-0.4c-0.3,0-0.6,0.1-0.8,0.3l2.2,11.1c3-1.4,6.7-3.6,8.6-7H1170.3z"/>
			<path class="st55" d="M1163.3,295.1l-3-15.5h-2.5l-3,15.5c0,0,0,0,0,0.1c2.1,0.9,3.8,1.3,4.3,1.5
				C1159.5,296.5,1161.2,296.1,1163.3,295.1C1163.3,295.2,1163.3,295.1,1163.3,295.1"/>
			<path class="st55" d="M1156,283.8c-0.2-0.2-0.5-0.3-0.8-0.3c0,0,0,0,0,0c-0.4,0-0.7,0.2-0.9,0.4c-0.2,0.2-0.3,0.5-0.3,0.7v2.9
				c0,0.2-0.2,0.4-0.4,0.4h-2.6c-0.1,0-0.2,0-0.3-0.1c-0.1-0.1-0.1-0.2-0.1-0.3v-2.9c-0.1-0.5-0.5-1-1.1-1.1c0,0,0,0,0,0
				c-0.4,0-0.7,0.2-0.9,0.4c-0.2,0.2-0.3,0.5-0.3,0.7v2.9c0,0.2-0.2,0.4-0.4,0.4h-2.4c1.9,3.4,5.5,5.6,8.6,7L1156,283.8z"/>
			<path class="st55" d="M1174.1,279.6h-13l0.6,3.3c0.3-0.2,0.6-0.2,0.9-0.2c0.6,0,1.1,0.2,1.5,0.6c0.4,0.4,0.6,0.9,0.6,1.3v2.5
				l1.7,0v-2.5c0,0,0,0,0,0c0.1-1.1,1-1.9,2-1.9c0.6,0,1.1,0.2,1.5,0.6c0.4,0.4,0.6,0.9,0.6,1.3v2.5l2.4,0c0.6-1.3,1-2.8,1-4.5
				L1174.1,279.6C1174.2,279.6,1174.1,279.6,1174.1,279.6"/>
			<path class="st55" d="M1147.2,287v-2.5c0-0.5,0.2-0.9,0.6-1.3c0.4-0.4,1-0.6,1.5-0.6c1.1,0,1.9,0.8,2,1.9c0,0,0,0,0,0v2.5h1.7
				v-2.5c0-0.5,0.2-0.9,0.6-1.3c0.4-0.4,1-0.6,1.5-0.6c0.3,0,0.6,0.1,0.9,0.2l0.6-3.2h-13v2.9c0,1.7,0.4,3.2,1,4.5H1147.2z"/>
			<path class="st55" d="M1148.3,277.8h0.7c0.1,0.1,0.1,0.2,0.1,0.3c0,0.1,0,0.1,0,0.2c0,0.2,0,0.3-0.1,0.4h-2.5
				c-0.4-0.2-0.5-1.2-0.6-2l1.1-0.3c0.2-0.1,0.3-0.2,0.3-0.4v-0.4c0-0.1-0.1-0.3-0.2-0.4l-1.2-0.9v-0.7l0.4-0.2
				c0.1-0.1,0.2-0.2,0.2-0.4v-1c0-0.2-0.1-0.3-0.3-0.4l-0.4-0.2l0-0.7l1.2,0l0.6,0.9l0,1.3l-0.4,1.2c0,0.1,0,0.3,0.1,0.4
				c0.1,0.1,0.2,0.2,0.4,0.2h0.3c0.2,0,0.4-0.2,0.4-0.4c0-0.2,0.1-0.8,0.2-1c0.1-0.2,0.4-0.6,0.6-0.9c0.1-0.2,0.1-0.4,0-0.6
				l-1.5-1.8c0-0.3-0.1-0.9,0-1.3c0.1-0.5,0.4-1.1,0.6-1.3c0.1-0.1,0.1-0.2,0.1-0.3l0-0.2h0.1l1.8,1.1c0.1,0,0.2,0.1,0.2,0.1h0.5
				l0,0.7l-0.6,0.2c-0.2,0.1-0.3,0.2-0.3,0.4l0,0.5c0,0.2,0.2,0.4,0.4,0.4l1.5,0l0.4,0.4c0.2,0.2,0.4,0.2,0.6,0c0,0,0.7-0.5,0.7-0.6
				l0.2-0.5h0.9v1v0.6c0,0-1.6,0.6-1.8,0.6c-0.1,0.1-0.2,0.6-0.1,0.7c0,0.1,0,0.2,0.2,0.3c0,0,0.5,0.4,0.6,0.4l0.5-0.4l0.6,0l0,1.5
				l-0.6,0.4l-1.9-1.3c-0.2-0.1-0.5-0.1-0.6,0.1l-0.3,0.4c-0.1,0.2-0.1,0.4,0,0.6l1.1,1l0,0.8l-1.1,0.5c-0.2,0.1-0.3,0.2-0.3,0.4
				v0.2c0,0.2,0.2,0.4,0.4,0.4h1.3c0.2,0.3,0.1,0.7,0,0.9h-3c-0.1-0.1-0.2-0.3-0.2-0.5c0-0.1,0-0.1,0-0.2c0-0.3,0-0.6,0.1-0.7
				l0.7-0.9c0.1-0.1,0.1-0.2,0.1-0.3l0-0.4c0-0.2-0.1-0.3-0.2-0.4c-0.1-0.1-0.3-0.1-0.4,0l-1.1,0.5c-0.1,0.1-0.2,0.2-0.3,0.3
				l-0.1,0.4l-0.6,0.2c-0.2,0.1-0.3,0.2-0.3,0.4v0.2C1147.8,277.6,1148,277.8,1148.3,277.8"/>
			<path class="st55" d="M1169.7,277.8h-0.7c-0.1,0.1-0.1,0.2-0.1,0.3c0,0.1,0,0.1,0,0.2c0,0.2,0,0.3,0.1,0.4h2.5
				c0.4-0.2,0.5-1.2,0.6-2l-1.1-0.3c-0.2-0.1-0.3-0.2-0.3-0.4v-0.4c0-0.1,0.1-0.3,0.2-0.4l1.2-0.9v-0.7l-0.4-0.2
				c-0.1-0.1-0.2-0.2-0.2-0.4v-1c0-0.2,0.1-0.3,0.3-0.4l0.4-0.2l0-0.7l-1.2,0l-0.6,0.9l0,1.3l0.4,1.2c0,0.1,0,0.3-0.1,0.4
				c-0.1,0.1-0.2,0.2-0.4,0.2h-0.3c-0.2,0-0.4-0.2-0.4-0.4c0-0.2-0.1-0.8-0.2-1c-0.1-0.2-0.4-0.6-0.6-0.9c-0.1-0.2-0.1-0.4,0-0.6
				l1.5-1.8c0-0.3,0.1-0.9,0-1.3c-0.1-0.5-0.4-1.1-0.6-1.3c-0.1-0.1-0.1-0.2-0.1-0.3l0-0.2h-0.1l-1.8,1.1c-0.1,0-0.2,0.1-0.2,0.1
				h-0.5l0,0.7l0.6,0.2c0.2,0.1,0.3,0.2,0.3,0.4l0,0.5c0,0.2-0.2,0.4-0.4,0.4l-1.5,0l-0.4,0.4c-0.2,0.2-0.4,0.2-0.6,0
				c0,0-0.7-0.5-0.7-0.6l-0.2-0.5h-0.9v1v0.6c0,0,1.6,0.6,1.8,0.6c0.1,0.1,0.2,0.6,0.1,0.7c0,0.1,0,0.2-0.2,0.3c0,0-0.5,0.4-0.6,0.4
				l-0.5-0.4l-0.6,0l0,1.5l0.6,0.4l1.9-1.3c0.2-0.1,0.5-0.1,0.6,0.1l0.3,0.4c0.1,0.2,0.1,0.4,0,0.6l-1.1,1l0,0.8l1.1,0.5
				c0.2,0.1,0.3,0.2,0.3,0.4v0.2c0,0.2-0.2,0.4-0.4,0.4h-1.3c-0.2,0.3-0.1,0.7,0,0.9h3c0.1-0.1,0.2-0.3,0.2-0.5c0-0.1,0-0.1,0-0.2
				c0-0.3,0-0.6-0.1-0.7l-0.7-0.9c-0.1-0.1-0.1-0.2-0.1-0.3l0-0.4c0-0.2,0.1-0.3,0.2-0.4c0.1-0.1,0.3-0.1,0.4,0l1.1,0.5
				c0.1,0.1,0.2,0.2,0.3,0.3l0.1,0.4l0.6,0.2c0.2,0.1,0.3,0.2,0.3,0.4v0.2C1170.1,277.6,1169.9,277.8,1169.7,277.8"/>
			<path class="st55" d="M1141,312L1141,312c0-1.7,1.2-3.1,3-3.1c1,0,1.6,0.3,2.2,0.8l-0.4,0.5c-0.5-0.4-1-0.7-1.8-0.7
				c-1.3,0-2.3,1.1-2.3,2.5v0c0,1.4,0.9,2.5,2.4,2.5c0.7,0,1.3-0.3,1.7-0.6v-1.5h-1.8v-0.6h2.5v2.4c-0.6,0.5-1.4,0.9-2.4,0.9
				C1142.2,315.1,1141,313.7,1141,312"/>
			<path class="st55" d="M1154.2,312L1154.2,312c0-1.4-1-2.5-2.4-2.5c-1.4,0-2.4,1.1-2.4,2.5v0c0,1.4,1,2.5,2.4,2.5
				S1154.2,313.4,1154.2,312 M1148.7,312L1148.7,312c0-1.7,1.2-3.1,3.1-3.1c1.8,0,3.1,1.4,3.1,3.1v0c0,1.7-1.2,3.1-3.1,3.1
				C1149.9,315.1,1148.7,313.7,1148.7,312"/>
			<path class="st55" d="M1159.9,312.3h-1.9v2.1h2c0.9,0,1.5-0.4,1.5-1.1v0C1161.5,312.6,1160.9,312.3,1159.9,312.3 M1161.1,310.6
				c0-0.6-0.5-1-1.3-1h-1.8v2.1h1.8C1160.6,311.7,1161.1,311.3,1161.1,310.6L1161.1,310.6z M1157.3,309h2.6c0.7,0,1.2,0.2,1.6,0.5
				c0.2,0.3,0.4,0.6,0.4,1v0c0,0.8-0.5,1.2-1,1.4c0.7,0.2,1.3,0.6,1.3,1.5v0c0,1-0.9,1.6-2.2,1.6h-2.7V309z"/>
		</g>
	</g>
</g>
<line class="st57" x1="620.2" y1="366.6" x2="620.2" y2="392.5"/>
<g>
	<g>
		<g>
			<path class="st58" d="M421.9,559.5c-2.7,1-4.9,1.8-6.4,2.3c0,0,0,0,0,0c-3.6-1.9-6.9-2.1-8.5-2.2c-1.2-0.1-1.5,0.6-1.6,1
				c-0.1,0.2,0.1,0.4,0.3,0.5c1.1,0.1,3.2,0.8,3.3,1.6c0.2,0.9-8.4,1.8-8.5,3c0,0.5,6.1,0,6.1,0s-6.5,1.7-6,2.5
				c0.5,0.7,6.4-0.1,6.4-0.1s-6.3,2.5-5.4,3c0.8,0.5,5.9-0.8,5.9-0.8c-2.2,1.2-2.9,2-3.1,2.4c-0.1,0.2,0,0.4,0.3,0.4
				c2.3-0.3,6.3-2.7,9-4.4l0,0l0,0.1c3.6,0.3,7.2,0.4,10.8,0.3C423.5,566,422.7,562.8,421.9,559.5z"/>
			<path class="st59" d="M461.2,518l-15.8,32.6l-29.3,9.8l1.2,9.8c0,0,34.7-2.1,40.3-7.7c5.6-5.6,16.2-32.6,16.6-35.3
				C474.5,524.6,461.2,518,461.2,518z"/>
		</g>
		<path class="st59" d="M470.9,513.3c0,0-7.3,7.5-7,13.4c0.3,5.9,0.8,38.2,0.8,38.2l-3,1.4l-6.2-2.2c0,0,3-34.1,3.1-37.8
			c0.1-3.7,1.2-9.3,4.6-10.8C466.7,514,470.9,513.3,470.9,513.3z"/>
	</g>
	<g>
		<g>
			<g>
				<path class="st60" d="M376,578.6c-13,1.7-21.9,2.9-21.9,2.9l-2.9,12.4l26.1,0.3C376.6,589.1,376.2,583.9,376,578.6z"/>
			</g>
			<path class="st59" d="M355.9,580.9c0,0-2.8-2.9-3.9-5.4c-1.1-2.5-0.5-13.9-6.2-13.1v26.3l2.3,2.3h-2.6v5.2c0,0,5.8,2,9.3,0.1
				c0,0-3.4-3.8-1.9-8C354.5,584.2,355.9,580.9,355.9,580.9z"/>
			<path class="st30" d="M369.3,577.8v17.6h124.9c0,0-4.4-25.2-14.5-28.4C469.5,563.8,369.3,577.8,369.3,577.8z"/>
		</g>
		<g>
			<g>
				<g>
					<path class="st61" d="M379.2,574.8L361,585l-1.5,8.7l4.2,4.9l4-1.3c0,0,0.1,0,0.2-0.1c1.3-0.5,8.8-3.6,19.4-8.1
						C384.5,584.4,381.7,579.7,379.2,574.8z"/>
				</g>
				<path class="st59" d="M361.5,583.3c0,0-3.8-1.3-6-3c-2.2-1.7-6.8-12.1-11.5-8.8l12,23.3l3.1,1l-2.3,1.2l2.4,4.7
					c0,0,6.1-0.9,8.4-4.2c0,0-4.8-1.8-5.3-6.2C361.8,586.9,361.5,583.3,361.5,583.3z"/>
			</g>
			<g>
				<path class="st30" d="M369.1,578.9l7.3,15l46.1-18.3c0,0,53,29.5,67.3,23.9c14.3-5.6,15-33,9.3-36.2c-5.8-3.3-37.3,1.1-37.3,1.1
					l-1.6,1.4c0,0-31.4-13.3-38.9-12.9C413.6,553.3,369.1,578.9,369.1,578.9z"/>
				<g class="st15">
					<g>
						<path class="st62" d="M377,593.4c3.7-1.7,7.5-3.3,11.3-4.9c3.8-1.6,7.6-3.1,11.4-4.6c3.8-1.5,7.6-3,11.4-4.4
							c3.8-1.4,7.7-2.9,11.5-4.2l-0.1,0.3c-0.8-1.1-1.6-2.1-2.4-3.2c0.9,1,1.8,2,2.6,3l0.2,0.2l-0.2,0.1c-3.7,1.7-7.5,3.2-11.3,4.8
							c-3.8,1.5-7.6,3.1-11.4,4.5c-3.8,1.5-7.6,3-11.5,4.3C384.7,590.7,380.9,592.1,377,593.4z"/>
					</g>
					<g>
						<path class="st62" d="M465.1,595.3c-1.8-0.7-3.6-1.5-5.4-2.2l-5.4-2.3c-3.6-1.6-7.1-3.2-10.7-4.8c-3.5-1.7-7.1-3.3-10.5-5.1
							l-5.2-2.6c-1.7-0.9-3.5-1.8-5.2-2.7c1.8,0.7,3.6,1.5,5.4,2.2l5.4,2.3c3.6,1.6,7.1,3.2,10.7,4.8c3.5,1.7,7.1,3.3,10.5,5.1
							l5.2,2.6C461.6,593.5,463.4,594.4,465.1,595.3z"/>
					</g>
					<g>
						<path class="st62" d="M460.2,566c2.3,0.7,4.4,1.8,6.5,2.9c2.1,1.1,4.1,2.4,6,3.9c-2.3-0.7-4.4-1.8-6.5-2.9
							C464.2,568.8,462.1,567.5,460.2,566z"/>
					</g>
					<g>
						<path class="st62" d="M476.1,570.3c-2,0.1-3.9-0.1-5.8-0.4c-1.9-0.3-3.8-0.8-5.6-1.5c2-0.1,3.9,0.1,5.8,0.4
							C472.4,569.1,474.2,569.5,476.1,570.3z"/>
					</g>
				</g>
			</g>
		</g>
	</g>
	<g>
		<g>
			<g>
				<path class="st61" d="M498.7,516.2c-1.5-1.4-3.5-2.2-5.6-2.2c-1.9-0.1-3.5-0.5-4.7-1.1c-2.1-6.5-0.1-18.7,0.2-20.3
					c0-0.1,0-0.1,0-0.2l-16.8,9.4c0.3,0.5,0.4,1.1,0.5,1.8v0c0.2,1.5-0.1,3.4-0.4,5.1c-0.3,1.9-0.8,3.7-1,4.4
					c-1.4,1.7-3.2,2.5-5.6,3.8c0,0.6,0,1.3-0.1,2c-0.7,3.9,0.6,9.4,0.4,13.4c-0.2,4.7-0.4,9.4-0.3,14.1c0,5.9,0.3,11.5,0.7,17.2
					h31.8c-0.9-8.5,1.2-21.1,3.6-35C502.6,521.9,500.8,518.2,498.7,516.2z"/>
				<path class="st63" d="M472,508.9c9.1,1.2,13.7-9.7,13.9-10.1c-1.7,2.7-4.1,4-6.5,4.7c-2.9,0.8-5.8,0.5-7,0.4c0,0,0,0-0.1,0
					C472.5,505.3,472.3,507.2,472,508.9z"/>
			</g>
			<path class="st2" d="M470.9,513.6c0,0-3.6,7.4-1,9c2.6,1.7,18.6-9.8,18.6-9.8s8.7,1,11.2,7.2c2.4,6.2-1,44.3-1,44.3
				s-29.6,1.8-37,0c0,0,0.1-18.9-0.8-24.8c-0.9-5.9-0.4-15.9,1.5-20C463.3,517.5,470.9,513.6,470.9,513.6z"/>
		</g>
		<g>
			<g>
				<path class="st59" d="M488.8,512.4c0,0-13.7,6.4-12.3,13.3c1.3,6.9,7.3,75.8,7.3,75.8s17.9,0.6,24.7-2.9
					c6.7-3.5-8.5-50.5-7.7-54.9c0.8-4.4,4.8-24.3-1-27.9C494,512,488.8,512.4,488.8,512.4z"/>
				<g>
					<path class="st62" d="M484.7,594.9c2,0.8,4,1.4,6.1,1.8c2,0.4,4.1,0.7,6.2,0.7c1,0.1,2.1-0.1,3.1-0.1c1-0.2,2.1-0.2,3.1-0.5
						c2.1-0.4,4-1.2,6-2c-1.8,1.2-3.7,2.3-5.8,2.9c-1,0.4-2.1,0.5-3.2,0.7c-1.1,0.1-2.2,0.2-3.3,0.2c-2.2,0-4.3-0.3-6.4-1
						C488.4,597,486.4,596.1,484.7,594.9z"/>
				</g>
			</g>
			<g>
				<g>
					
						<rect x="433.9" y="517" transform="matrix(-0.7096 0.7047 -0.7047 -0.7096 1114.063 590.7007)" class="st62" width="2.7" height="15.8"/>
					<path class="st61" d="M433.7,532.5c0,0,0.6,1.2,1.1,1.4c0.5,0.2,2.9,0.8,3,0.8c0,0,0,0,0,0c0.1,0.1,2.3,2,5.6,4.6
						c1-1.4,2.1-2.7,3.1-4.1c0.7-0.9,1.4-1.9,2.1-2.8c-1.4-0.7-2.7-1.2-3.6-1.6l-2.1-1.6c-0.9-1.2-3.7-5.6-4.9-5.5
						c-1.5,0.1-1.4,0.7-1.4,0.7s2.4,3,1.8,4.2c-0.5,1.1-5.7-4.5-5.7-4.5l-1.4-1.1c0,0-0.2,3.2,0.9,4.2c0,0-0.7,1.7,0.6,3.1
						C432.8,530.3,432.9,532,433.7,532.5z"/>
				</g>
				<g>
					<path class="st59" d="M487.4,517.4l-10.4,26l-33.3-14.3c0,0-5.8,7.3-5.2,7.5c0.6,0.2,30.1,28.9,42.4,26.8
						c12.3-2.1,20.6-38.4,20.6-38.4L487.4,517.4z"/>
				</g>
			</g>
		</g>
	</g>
	<g>
		<g>
			<path class="st61" d="M493.2,487.5c-0.4-1.4-1.9-2.5-3.4-2.1c-0.1,0-0.3,0.1-0.4,0.2c0.2-4.8-0.5-10.1-3.8-13
				c-7.2-6.3-17.5-4.1-19.7,1.6c-2.5,6.4-2.6,14.4-2.5,21.2c0,0.9,0,1.8,0.3,2.6c1.1,3.2,5.8,5.2,8.9,5.9c4,0.8,8-0.2,11.2-2.8
				c2.5-2.1,4.1-5,4.8-8.2c0.7,0.1,1.7-0.1,2-0.2c0.9-0.3,1.7-1.1,2.3-1.9C493.3,489.8,493.6,488.6,493.2,487.5z"/>
		</g>
		<path class="st62" d="M494,480.6c-0.6-1.8-1.4-3.8-3.2-4.1c0.7-1.5,0.7-3.4,0-4.9c-0.6-1.3-1.8-2.4-3-3.2
			c-1.7-1.1-3.6-1.9-5.7-2.2c-3.1-0.4-6.2,0.2-9.3,0.8c-1.6,0.3-3.6,0.6-5.2,0.9c-1.6-1.2-4.1-0.6-5.4,1c-1.3,1.6-1.6,3.7-1.6,5.7
			c0.1,4,1.4,7.8,2.8,11.6c0.1-1.5,0.3-3.1,0.5-4.6c0.6-1.7,1.5-3.2,2.7-4.4c3.9,3.9,10,5.3,15.2,3.4c0.2,1.3,0.5,2.4,1,3.6
			c0.6,1.4,1.6,2.8,3.1,3.1c0.7,0.1,1.5-0.1,1.7-0.7c0.2-0.6,1.6-1.1,1.6-1.1c0.2-0.1,0.3-0.1,0.4-0.2c1.5-0.4,2.9,0.7,3.4,2.1
			c0.4,1.1,0.1,2.3-0.5,3.3c-0.5,0.8-1.4,1.6-2.3,1.9c-0.2,0.1-1.2,0.3-2,0.2c-0.4,1.7-1,3.3-1.9,4.7c1.2,0.1,2.5,0.1,3.6-0.5
			c1.6-0.8,2.5-2.5,3.3-4.1c0.7-1.4,1.3-2.9,1.6-4.4C495.5,485.8,494.8,483.1,494,480.6z"/>
	</g>
</g>
</svg>
