<?xml version="1.0" encoding="UTF-8" standalone="no"?>
<svg
   xmlns:dc="http://purl.org/dc/elements/1.1/"
   xmlns:cc="http://creativecommons.org/ns#"
   xmlns:rdf="http://www.w3.org/1999/02/22-rdf-syntax-ns#"
   xmlns:svg="http://www.w3.org/2000/svg"
   xmlns="http://www.w3.org/2000/svg"
   xmlns:sodipodi="http://sodipodi.sourceforge.net/DTD/sodipodi-0.dtd"
   xmlns:inkscape="http://www.inkscape.org/namespaces/inkscape"
   version="1.1"
   id="Capa_1"
   x="0px"
   y="0px"
   viewBox="0 0 56 56"
   style="enable-background:new 0 0 56 56;"
   xml:space="preserve"
   sodipodi:docname="calc.svg"
   inkscape:version="1.0.1 (3bc2e813f5, 2020-09-07)"><metadata
   id="metadata55"><rdf:RDF><cc:Work
       rdf:about=""><dc:format>image/svg+xml</dc:format><dc:type
         rdf:resource="http://purl.org/dc/dcmitype/StillImage" /><dc:title></dc:title></cc:Work></rdf:RDF></metadata><defs
   id="defs53" /><sodipodi:namedview
   pagecolor="#ffffff"
   bordercolor="#666666"
   borderopacity="1"
   objecttolerance="10"
   gridtolerance="10"
   guidetolerance="10"
   inkscape:pageopacity="0"
   inkscape:pageshadow="2"
   inkscape:window-width="1920"
   inkscape:window-height="1016"
   id="namedview51"
   showgrid="false"
   inkscape:zoom="5.3601219"
   inkscape:cx="19.647868"
   inkscape:cy="43.335091"
   inkscape:window-x="1912"
   inkscape:window-y="-8"
   inkscape:window-maximized="1"
   inkscape:current-layer="g18"
   showguides="true"
   inkscape:guide-bbox="true"><sodipodi:guide
     position="28.12436,13.277091"
     orientation="0,-1"
     id="guide65" /></sodipodi:namedview>
<g
   id="g18"
   style="display:inline">
	<path
   style="fill:#e9e9e0"
   d="M 36.985,0 H 7.963 C 7.155,0 6.5,0.655 6.5,1.926 V 55 c 0,0.345 0.655,1 1.463,1 H 48.037 C 48.845,56 49.5,55.345 49.5,55 V 12.978 c 0,-0.696 -0.093,-0.92 -0.257,-1.085 L 37.607,0.257 C 37.442,0.093 37.218,0 36.985,0 Z"
   id="path2" />
	<polygon
   style="fill:#d9d7ca"
   points="37.5,12 49.349,12 37.5,0.151 "
   id="polygon4" />
	<path
   style="fill:#008000"
   d="M 48.037,56 H 7.963 C 7.155,56 6.5,55.345 6.5,54.537 V 39 h 43 V 54.537 C 49.5,55.345 48.845,56 48.037,56 Z"
   id="path6" />
	
	<path
   style="fill:#c8bdb8"
   d="m 23.5,16 v -4 h -12 v 4 2 2 2 2 2 2 2 4 h 10 2 21 v -4 -2 -2 -2 -2 -2 -4 z m -10,-2 h 8 v 2 h -8 z m 0,4 h 8 v 2 h -8 z m 0,4 h 8 v 2 h -8 z m 0,4 h 8 v 2 h -8 z m 8,6 h -8 v -2 h 8 z m 21,0 h -19 v -2 h 19 z m 0,-4 h -19 v -2 h 19 z m 0,-4 h -19 v -2 h 19 z m -19,-4 v -2 h 19 v 2 z"
   id="path16" />
<text
   xml:space="preserve"
   style="font-style:normal;font-variant:normal;font-weight:bold;font-stretch:normal;font-size:15.4704px;line-height:1.25;font-family:Carlito;-inkscape-font-specification:'Carlito Bold';fill:#ffffff;fill-opacity:1;stroke:none;stroke-width:0.386761"
   x="11.107568"
   y="52.979847"
   id="text63"><tspan
     sodipodi:role="line"
     id="tspan61"
     x="11.107568"
     y="52.979847"
     style="font-style:normal;font-variant:normal;font-weight:bold;font-stretch:normal;font-family:Carlito;-inkscape-font-specification:'Carlito Bold';fill:#ffffff;stroke-width:0.386761">CALC</tspan></text></g>
<g
   id="g20">
</g>
<g
   id="g22">
</g>
<g
   id="g24">
</g>
<g
   id="g26">
</g>
<g
   id="g28">
</g>
<g
   id="g30">
</g>
<g
   id="g32">
</g>
<g
   id="g34">
</g>
<g
   id="g36">
</g>
<g
   id="g38">
</g>
<g
   id="g40">
</g>
<g
   id="g42">
</g>
<g
   id="g44">
</g>
<g
   id="g46">
</g>
<g
   id="g48">
</g>
<g
   inkscape:groupmode="layer"
   id="layer2"
   inkscape:label="Layer 1"
   style="display:inline" /></svg>
